<svg aria-hidden="true" style="position:absolute;width:0;height:0;overflow:hidden" xmlns="http://www.w3.org/2000/svg">
  <defs>
    <symbol id="icon-arrow-circle-broken-right" viewBox="0 0 32 32">
      <path stroke-linejoin="round" stroke-linecap="round" stroke-width="2.6" d="M4.45 9.333A13.328 13.328 0 0 1 16 2.666c7.364 0 13.333 5.97 13.333 13.333S23.363 29.332 16 29.332a13.329 13.329 0 0 1-11.55-6.667"/>
      <path stroke-linejoin="round" stroke-linecap="round" stroke-width="2.6" d="M16 21.333 21.333 16 16 10.667M2.667 16h18.667"/>
    </symbol>
    <symbol id="icon-avatar" viewBox="0 0 32 32">
      <path d="M22.667 8.762c0 3.577-2.899 6.476-6.476 6.476s-6.476-2.899-6.476-6.476a6.475 6.475 0 1 1 12.952 0z"/>
      <path d="M31.859 30.75a15.922 15.922 0 0 0-4.666-11.264 15.934 15.934 0 0 0-17.36-3.453A15.934 15.934 0 0 0-.001 30.75h31.859z"/>
    </symbol>
    <symbol id="icon-bell" viewBox="0 0 32 32">
      <path stroke-linejoin="round" stroke-linecap="round" stroke-width="3" d="M12.472 28c.94.83 2.175 1.333 3.528 1.333s2.588-.504 3.528-1.333M24 10.667a8 8 0 1 0-16 0c0 4.12-1.039 6.941-2.2 8.807-.979 1.574-1.469 2.361-1.451 2.58.02.243.071.336.267.481.177.131.974.131 2.569.131h17.63c1.595 0 2.392 0 2.569-.131.196-.145.247-.238.267-.481.018-.22-.472-1.006-1.451-2.58-1.161-1.866-2.2-4.687-2.2-8.807z"/>
    </symbol>
    <symbol id="icon-chevron-down" viewBox="0 0 32 32">
      <path stroke-linejoin="round" stroke-linecap="round" stroke-width="2.824" d="M8.471 12.235 16 19.764l7.529-7.529"/>
    </symbol>
    <symbol id="icon-colors" viewBox="0 0 32 32">
      <path stroke-linejoin="round" stroke-linecap="round" stroke-width="2.667" d="M16 27.296a8 8 0 1 0 7.44-13.683m-14.88.001a8 8 0 1 0 9.546 4.773M24 10.667a8 8 0 1 1-16 0 8 8 0 0 1 16 0z"/>
    </symbol>
    <symbol id="icon-container" viewBox="0 0 32 32">
      <path stroke-linejoin="round" stroke-linecap="round" stroke-width="2.667" d="M27.333 9.704 16 16m0 0L4.667 9.704M16 16v12.667m12-7.256V10.588c0-.457 0-.685-.067-.889a1.343 1.343 0 0 0-.285-.485c-.145-.158-.345-.269-.744-.491l-9.867-5.481c-.378-.21-.567-.315-.767-.356a1.349 1.349 0 0 0-.537 0c-.2.041-.389.146-.767.356L5.099 8.723c-.399.222-.599.333-.744.491a1.34 1.34 0 0 0-.286.485c-.067.204-.067.432-.067.889v10.823c0 .457 0 .685.067.889.06.18.157.346.286.485.145.158.345.269.744.491l9.867 5.482c.378.21.567.315.767.356.177.036.36.036.537 0 .2-.041.389-.146.767-.356l9.867-5.482c.399-.222.599-.333.744-.491.129-.14.226-.305.285-.485.067-.204.067-.432.067-.889z"/>
    </symbol>
    <symbol id="icon-eye" viewBox="0 0 32 32" >
      <path d="M0.75 9C0.75 9 3.75 3 9 3C14.25 3 17.25 9 17.25 9C17.25 9 14.25 15 9 15C3.75 15 0.75 9 0.75 9Z" stroke="white" stroke-width="1.3" stroke-linecap="round" stroke-linejoin="round"/>
      <path d="M9 11.25C10.2426 11.25 11.25 10.2426 11.25 9C11.25 7.75736 10.2426 6.75 9 6.75C7.75736 6.75 6.75 7.75736 6.75 9C6.75 10.2426 7.75736 11.25 9 11.25Z" stroke="white" stroke-width="1.3" stroke-linecap="round" stroke-linejoin="round"/>
    </symbol>
    <symbol id="icon-eye-hide" viewBox="0 0 24 24">
      <path stroke-linecap="round" stroke-linejoin="round" stroke-width="2" d="m2 2 20 20M6.713 6.723C3.665 8.795 2 12 2 12s3.636 7 10 7c2.05 0 3.817-.727 5.271-1.712M11 5.058A8.595 8.595 0 0 1 12 5c6.364 0 10 7 10 7s-.692 1.332-2 2.834"/>
      <path stroke-linecap="round" stroke-linejoin="round" stroke-width="2" d="M14 14.236a3 3 0 0 1-4.13-4.348"/>
    </symbol>
    <symbol id="icon-filter" viewBox="0 0 32 32">
      <path stroke-linejoin="round" stroke-linecap="round" stroke-width="3" d="M29.334 4H2.667l10.667 12.613v8.72L18.667 28V16.613L29.334 4z"/>
    </symbol>
    <symbol id="icon-help-circle" viewBox="0 0 32 32">
      <path fill="none" stroke-linejoin="round" stroke-linecap="round" stroke-width="2.88" d="M16 29.333c7.364 0 13.333-5.97 13.333-13.333S23.364 2.667 16 2.667 2.667 8.637 2.667 16c0 7.364 5.97 13.333 13.333 13.333z"/>
      <path fill="none" stroke-linejoin="round" stroke-linecap="round" stroke-width="2.88" d="M12.12 12a4.003 4.003 0 0 1 6.834-1.249c.608.722.941 1.637.94 2.582 0 2.667-4 4-4 4M16 22.667h.02"/>
    </symbol>
    <symbol id="icon-hexagon" viewBox="0 0 32 32">
      <path stroke-linejoin="round" stroke-linecap="round" stroke-width="2.667" d="M14.964 3.242c.378-.21.567-.315.767-.356.177-.036.36-.036.537 0 .2.041.389.146.767.356l9.867 5.482c.399.222.599.333.744.491.129.14.226.305.285.485.067.204.067.432.067.889v10.823c0 .457 0 .685-.067.889-.06.18-.157.346-.285.485-.145.158-.345.269-.744.491l-9.867 5.482c-.378.21-.567.315-.767.356-.177.036-.36.036-.537 0-.2-.041-.389-.146-.767-.356l-9.867-5.482c-.399-.222-.599-.333-.744-.491a1.34 1.34 0 0 1-.286-.485C4 22.097 4 21.869 4 21.412V10.589c0-.457 0-.685.067-.889.06-.18.157-.346.286-.485.145-.158.345-.269.744-.491l9.867-5.481z"/>
    </symbol>
    <symbol id="icon-lightning-icon" viewBox="0 0 32 32">
      <path stroke-linejoin="round" stroke-linecap="round" stroke-width="2.667" d="M18.999 2.667h-7.674c-.239 0-.359 0-.465.036a.672.672 0 0 0-.249.154c-.08.078-.133.185-.24.399l-5.6 11.2c-.256.511-.383.767-.353.974a.669.669 0 0 0 .277.449c.172.12.458.12 1.029.12h8.274l-4 13.333 16.258-16.86c.548-.569.823-.853.839-1.097a.665.665 0 0 0-.235-.553c-.186-.157-.581-.157-1.372-.157h-9.49l3-8z"/>
    </symbol>
    <symbol id="icon-loading" viewBox="0 0 32 32">
      <path stroke-linejoin="round" stroke-linecap="round" stroke-width="2.667" d="M4.454 22.666a6.364 6.364 0 0 1 1.944-8.453l.003-.003a6.37 6.37 0 0 1 7.312.126l4.576 3.327a6.37 6.37 0 0 0 7.312.126l.003-.003a6.36 6.36 0 0 0 1.943-8.453m-4.878 18.213a6.365 6.365 0 0 1-8.453-1.944l-.003-.003a6.37 6.37 0 0 1 .126-7.312l3.327-4.576a6.37 6.37 0 0 0 .126-7.312l-.006-.003a6.363 6.363 0 0 0-8.453-1.942m16.094 2.118c5.207 5.207 5.207 13.648 0 18.855s-13.648 5.207-18.855 0c-5.207-5.207-5.207-13.648 0-18.855s13.648-5.207 18.855 0z"/>
    </symbol>
    <symbol id="icon-login" viewBox="0 0 32 32">
      <path fill="none" stroke-linejoin="round" stroke-linecap="round" stroke-width="1.5" d="M11.867 10.08c.413-4.8 2.88-6.76 8.28-6.76h.173c5.96 0 8.347 2.387 8.347 8.347v8.693c0 5.96-2.387 8.347-8.347 8.347h-.173c-5.36 0-7.827-1.933-8.267-6.653M2.667 16H19.84"/>
      <path fill="none" stroke-linejoin="round" stroke-linecap="round" stroke-width="1.5" d="M16.867 11.533 21.334 16l-4.467 4.467"/>
    </symbol>
    <symbol id="icon-logo-lightning" viewBox="0 0 32 32">
      <path d="M13.331 23.027c0.244-1.272 0.453-2.61 0.747-3.949 0.145-0.7-0.032-0.999-0.815-0.946s-1.657 0.027-2.49 0c-0.833-0.027-0.982-0.446-0.502-1.044 2.363-2.918 4.753-5.8 7.134-8.674 0.267-0.326 0.575-0.558 1.014-0.312s0.348 0.549 0.276 0.915c-0.263 1.339-0.48 2.677-0.77 3.989-0.149 0.678 0.045 0.919 0.751 0.892 0.709-0.036 1.419-0.036 2.127 0 0.403 0 0.932-0.21 1.141 0.339s-0.231 0.781-0.453 1.106c-0.905 1.115-1.823 2.229-2.752 3.342-1.361 1.624-2.711 3.242-4.051 4.854-0.262 0.317-0.557 0.571-1.005 0.41s-0.353-0.54-0.353-0.924z"/>
    </symbol>
    <symbol id="icon-menu" viewBox="0 0 32 32">
      <path stroke-linejoin="round" stroke-linecap="round" stroke-width="2.5" d="M4 16h24M4 8h24M4 24h24"/>
    </symbol>
    <symbol id="icon-pencil-01" viewBox="0 0 32 32">
      <path stroke-linejoin="round" stroke-linecap="round" stroke-miterlimit="4" stroke-width="2.6" d="M3.334 28.666l7.4-2.844c0.472-0.182 0.708-0.274 0.93-0.392 0.196-0.106 0.384-0.228 0.56-0.366 0.2-0.154 0.378-0.332 0.736-0.69l15.040-15.040c0.703-0.686 1.138-1.642 1.138-2.7 0-2.083-1.689-3.772-3.772-3.772-1.058 0-2.014 0.436-2.699 1.137l-15.041 15.041c-0.358 0.36-0.536 0.538-0.69 0.736-0.138 0.176-0.26 0.364-0.366 0.56-0.118 0.22-0.208 0.46-0.39 0.932l-2.846 7.4zM3.334 28.666l2.744-7.134c0.196-0.51 0.294-0.766 0.462-0.882 0.106-0.075 0.238-0.12 0.381-0.12 0.044 0 0.087 0.004 0.129 0.012l-0.004-0.001c0.2 0.040 0.394 0.232 0.78 0.62l3.014 3.010c0.386 0.388 0.58 0.58 0.618 0.782 0.008 0.038 0.012 0.081 0.012 0.125 0 0.143-0.045 0.275-0.121 0.383l0.001-0.002c-0.116 0.168-0.372 0.266-0.882 0.462l-7.134 2.744z"></path>
    </symbol>
    <symbol id="icon-plus" viewBox="0 0 32 32">
      <path stroke-linejoin="round" stroke-linecap="round" stroke-width="3.2" d="M16 6.667v18.667M6.667 16h18.667"/>
    </symbol>
    <symbol id="icon-Project" viewBox="0 0 32 32">
      <path stroke-width="2.667" d="M4.396 6.978a3.465 3.465 0 0 1 2.582-2.582 7.408 7.408 0 0 1 3.377 0 3.465 3.465 0 0 1 2.582 2.582c.26 1.11.26 2.266 0 3.377a3.465 3.465 0 0 1-2.582 2.582c-1.11.26-2.266.26-3.377 0a3.465 3.465 0 0 1-2.582-2.582 7.408 7.408 0 0 1 0-3.377zM4.396 21.645a3.465 3.465 0 0 1 2.582-2.582 7.38 7.38 0 0 1 3.377 0 3.464 3.464 0 0 1 2.582 2.582 7.408 7.408 0 0 1 0 3.377 3.465 3.465 0 0 1-2.582 2.582 7.38 7.38 0 0 1-3.377 0 3.464 3.464 0 0 1-2.582-2.582 7.408 7.408 0 0 1 0-3.377zM19.063 6.978a3.464 3.464 0 0 1 2.582-2.582 7.408 7.408 0 0 1 3.377 0 3.465 3.465 0 0 1 2.582 2.582 7.38 7.38 0 0 1 0 3.377 3.464 3.464 0 0 1-2.582 2.582 7.408 7.408 0 0 1-3.377 0 3.465 3.465 0 0 1-2.582-2.582 7.38 7.38 0 0 1 0-3.377zM19.063 21.645a3.464 3.464 0 0 1 2.582-2.582 7.38 7.38 0 0 1 3.377 0 3.464 3.464 0 0 1 2.582 2.582 7.38 7.38 0 0 1 0 3.377 3.464 3.464 0 0 1-2.582 2.582 7.38 7.38 0 0 1-3.377 0 3.464 3.464 0 0 1-2.582-2.582 7.38 7.38 0 0 1 0-3.377z"/>
    </symbol>
    <symbol id="icon-puzzle-piece" viewBox="0 0 32 32">
      <path stroke-linejoin="round" stroke-linecap="round" stroke-width="2.667" d="m16 2.667 4.8 4.8C24-.933 32.933 8 24.533 11.2l4.8 4.8-4.8 4.8c-3.2-8.4-12.133.533-3.733 3.733l-4.8 4.8-4.8-4.8C8 32.933-.933 24 7.467 20.8l-4.8-4.8 4.8-4.8c3.2 8.4 12.133-.533 3.733-3.733l4.8-4.8z"/>
    </symbol>
    <symbol id="icon-star" viewBox="0 0 32 32">
      <path stroke-linejoin="round" stroke-linecap="round" stroke-width="2.667" d="m16 2.667 2.683 6.975c.376.978.564 1.466.856 1.878.259.364.577.683.942.942.411.292.9.48 1.878.856l6.975 2.683-6.975 2.683c-.978.376-1.466.564-1.878.856a3.993 3.993 0 0 0-.942.942c-.292.411-.48.9-.856 1.878L16 29.335l-2.683-6.975c-.376-.978-.564-1.466-.856-1.878a4.012 4.012 0 0 0-.942-.942c-.411-.292-.9-.48-1.878-.856l-6.975-2.683 6.975-2.683c.978-.376 1.466-.564 1.878-.856.364-.259.683-.578.942-.942.292-.411.48-.9.856-1.878L16 2.667z"/>
    </symbol>
    <symbol id="icon-trash" viewBox="0 0 32 32">
      <path stroke-linejoin="round" stroke-linecap="round" stroke-miterlimit="4" stroke-width="2.6" d="M12 4h8M4 8h24M6.666 8l0.8 12.018c0.15 2.23 0.224 3.346 0.59 4.242 0.673 1.625 1.992 2.868 3.628 3.424l0.042 0.012c0.92 0.304 2.038 0.304 4.274 0.304v0c2.236 0 3.354 0 4.272-0.304 1.679-0.568 2.999-1.81 3.657-3.396l0.015-0.040c0.364-0.896 0.44-2.012 0.588-4.242l0.8-12.018"></path>
    </symbol>
    <symbol id="icon-x-close" viewBox="0 0 32 32">
      <path stroke-linecap="round" stroke-linejoin="round" stroke-width="2.667" d="M24 8 8 24M8 8l16 16"/>
    </symbol>
    <symbol id="null-background" viewBox="0 0 32 32">
      <path stroke-linecap="round" stroke-linejoin="round" stroke-width="2" d="M25.333 28h1.347c1.295 0 1.942 0 2.299-.27.311-.235.503-.595.527-.984.027-.447-.332-.985-1.051-2.063l-4.014-6.021c-.593-.89-.89-1.335-1.264-1.49a1.331 1.331 0 0 0-1.022 0c-.374.155-.671.6-1.264 1.49l-.992 1.488M25.333 28 15.087 13.2c-.589-.851-.884-1.277-1.252-1.426a1.332 1.332 0 0 0-1.004 0c-.368.15-.663.575-1.252 1.426L3.651 24.652c-.751 1.084-1.126 1.626-1.105 2.077.019.393.21.757.522.996.359.274 1.018.274 2.337.274h19.928zM28 8a4 4 0 1 1-8 0 4 4 0 0 1 8 0z"/>
    </symbol>
  </defs>
</svg>
