<svg aria-hidden="true" style="position:absolute;width:0;height:0;overflow:hidden" xmlns="http://www.w3.org/2000/svg">
  <defs>
    <symbol id="icon-arrow-circle-broken-right" viewBox="0 0 32 32">
      <path stroke-linejoin="round" stroke-linecap="round" stroke-width="2.6" d="M4.45 9.333A13.328 13.328 0 0 1 16 2.666c7.364 0 13.333 5.97 13.333 13.333S23.363 29.332 16 29.332a13.329 13.329 0 0 1-11.55-6.667"/>
      <path stroke-linejoin="round" stroke-linecap="round" stroke-width="2.6" d="M16 21.333 21.333 16 16 10.667M2.667 16h18.667"/>
    </symbol>
    <symbol id="icon-avatar" viewBox="0 0 32 32">
      <path d="M22.667 8.762c0 3.577-2.899 6.476-6.476 6.476s-6.476-2.899-6.476-6.476a6.475 6.475 0 1 1 12.952 0z"/>
      <path d="M31.859 30.75a15.922 15.922 0 0 0-4.666-11.264 15.934 15.934 0 0 0-17.36-3.453A15.934 15.934 0 0 0-.001 30.75h31.859z"/>
    </symbol>
    <symbol id="icon-bell" viewBox="0 0 32 32">
      <path stroke-linejoin="round" stroke-linecap="round" stroke-width="3" d="M12.472 28c.94.83 2.175 1.333 3.528 1.333s2.588-.504 3.528-1.333M24 10.667a8 8 0 1 0-16 0c0 4.12-1.039 6.941-2.2 8.807-.979 1.574-1.469 2.361-1.451 2.58.02.243.071.336.267.481.177.131.974.131 2.569.131h17.63c1.595 0 2.392 0 2.569-.131.196-.145.247-.238.267-.481.018-.22-.472-1.006-1.451-2.58-1.161-1.866-2.2-4.687-2.2-8.807z"/>
    </symbol>
    <symbol id="icon-chevron-down" viewBox="0 0 32 32">
      <path stroke-linejoin="round" stroke-linecap="round" stroke-width="2.824" d="M8.471 12.235 16 19.764l7.529-7.529"/>
    </symbol>
    <symbol id="icon-colors" viewBox="0 0 32 32">
      <path stroke-linejoin="round" stroke-linecap="round" stroke-width="2.667" d="M16 27.296a8 8 0 1 0 7.44-13.683m-14.88.001a8 8 0 1 0 9.546 4.773M24 10.667a8 8 0 1 1-16 0 8 8 0 0 1 16 0z"/>
    </symbol>
    <symbol id="icon-container" viewBox="0 0 32 32">
      <path stroke-linejoin="round" stroke-linecap="round" stroke-width="2.667" d="M27.333 9.704 16 16m0 0L4.667 9.704M16 16v12.667m12-7.256V10.588c0-.457 0-.685-.067-.889a1.343 1.343 0 0 0-.285-.485c-.145-.158-.345-.269-.744-.491l-9.867-5.481c-.378-.21-.567-.315-.767-.356a1.349 1.349 0 0 0-.537 0c-.2.041-.389.146-.767.356L5.099 8.723c-.399.222-.599.333-.744.491a1.34 1.34 0 0 0-.286.485c-.067.204-.067.432-.067.889v10.823c0 .457 0 .685.067.889.06.18.157.346.286.485.145.158.345.269.744.491l9.867 5.482c.378.21.567.315.767.356.177.036.36.036.537 0 .2-.041.389-.146.767-.356l9.867-5.482c.399-.222.599-.333.744-.491.129-.14.226-.305.285-.485.067-.204.067-.432.067-.889z"/>
    </symbol>
    <symbol id="icon-eye" viewBox="0 0 32 32">
      <path d="M16 6c-6.979 0-13.028 4.064-16 10 2.972 5.936 9.021 10 16 10s13.027-4.064 16-10c-2.972-5.936-9.021-10-16-10zM23.889 11.303c1.88 1.199 3.473 2.805 4.67 4.697-1.197 1.891-2.79 3.498-4.67 4.697-2.362 1.507-5.090 2.303-7.889 2.303s-5.527-0.796-7.889-2.303c-1.88-1.199-3.473-2.805-4.67-4.697 1.197-1.891 2.79-3.498 4.67-4.697 0.122-0.078 0.246-0.154 0.371-0.228-0.311 0.854-0.482 1.776-0.482 2.737 0 4.418 3.582 8 8 8s8-3.582 8-8c0-0.962-0.17-1.883-0.482-2.737 0.124 0.074 0.248 0.15 0.371 0.228v0zM16 13c0 1.657-1.343 3-3 3s-3-1.343-3-3 1.343-3 3-3 3 1.343 3 3z"></path>
    </symbol>
    <symbol id="icon-eye-blocked" viewBox="0 0 32 32">
      <path d="M29.561 0.439c-0.586-0.586-1.535-0.586-2.121 0l-6.318 6.318c-1.623-0.492-3.342-0.757-5.122-0.757-6.979 0-13.028 4.064-16 10 1.285 2.566 3.145 4.782 5.407 6.472l-4.968 4.968c-0.586 0.586-0.586 1.535 0 2.121 0.293 0.293 0.677 0.439 1.061 0.439s0.768-0.146 1.061-0.439l27-27c0.586-0.586 0.586-1.536 0-2.121zM13 10c1.32 0 2.44 0.853 2.841 2.037l-3.804 3.804c-1.184-0.401-2.037-1.521-2.037-2.841 0-1.657 1.343-3 3-3zM3.441 16c1.197-1.891 2.79-3.498 4.67-4.697 0.122-0.078 0.246-0.154 0.371-0.228-0.311 0.854-0.482 1.776-0.482 2.737 0 1.715 0.54 3.304 1.459 4.607l-1.904 1.904c-1.639-1.151-3.038-2.621-4.114-4.323z"></path>
      <path d="M24 13.813c0-0.849-0.133-1.667-0.378-2.434l-10.056 10.056c0.768 0.245 1.586 0.378 2.435 0.378 4.418 0 8-3.582 8-8z"></path>
      <path d="M25.938 9.062l-2.168 2.168c0.040 0.025 0.079 0.049 0.118 0.074 1.88 1.199 3.473 2.805 4.67 4.697-1.197 1.891-2.79 3.498-4.67 4.697-2.362 1.507-5.090 2.303-7.889 2.303-1.208 0-2.403-0.149-3.561-0.439l-2.403 2.403c1.866 0.671 3.873 1.036 5.964 1.036 6.978 0 13.027-4.064 16-10-1.407-2.81-3.504-5.2-6.062-6.938z"></path>      </symbol>
    <symbol id="icon-filter" viewBox="0 0 32 32">
      <path stroke-linejoin="round" stroke-linecap="round" stroke-width="3" d="M29.334 4H2.667l10.667 12.613v8.72L18.667 28V16.613L29.334 4z"/>
    </symbol>
    <symbol id="icon-help-circle" viewBox="0 0 32 32">
      <path fill="none" stroke-linejoin="round" stroke-linecap="round" stroke-width="2.88" d="M16 29.333c7.364 0 13.333-5.97 13.333-13.333S23.364 2.667 16 2.667 2.667 8.637 2.667 16c0 7.364 5.97 13.333 13.333 13.333z"/>
      <path fill="none" stroke-linejoin="round" stroke-linecap="round" stroke-width="2.88" d="M12.12 12a4.003 4.003 0 0 1 6.834-1.249c.608.722.941 1.637.94 2.582 0 2.667-4 4-4 4M16 22.667h.02"/>
    </symbol>
    <symbol id="icon-hexagon" viewBox="0 0 32 32">
      <path stroke-linejoin="round" stroke-linecap="round" stroke-width="2.667" d="M14.964 3.242c.378-.21.567-.315.767-.356.177-.036.36-.036.537 0 .2.041.389.146.767.356l9.867 5.482c.399.222.599.333.744.491.129.14.226.305.285.485.067.204.067.432.067.889v10.823c0 .457 0 .685-.067.889-.06.18-.157.346-.285.485-.145.158-.345.269-.744.491l-9.867 5.482c-.378.21-.567.315-.767.356-.177.036-.36.036-.537 0-.2-.041-.389-.146-.767-.356l-9.867-5.482c-.399-.222-.599-.333-.744-.491a1.34 1.34 0 0 1-.286-.485C4 22.097 4 21.869 4 21.412V10.589c0-.457 0-.685.067-.889.06-.18.157-.346.286-.485.145-.158.345-.269.744-.491l9.867-5.481z"/>
    </symbol>
    <symbol id="icon-lightning" viewBox="0 0 32 32">
      <path stroke-linejoin="round" stroke-linecap="round" stroke-width="2.667" d="M18.999 2.667h-7.674c-.239 0-.359 0-.465.036a.672.672 0 0 0-.249.154c-.08.078-.133.185-.24.399l-5.6 11.2c-.256.511-.383.767-.353.974a.669.669 0 0 0 .277.449c.172.12.458.12 1.029.12h8.274l-4 13.333 16.258-16.86c.548-.569.823-.853.839-1.097a.665.665 0 0 0-.235-.553c-.186-.157-.581-.157-1.372-.157h-9.49l3-8z"/>
    </symbol>
    <symbol id="icon-loading" viewBox="0 0 32 32">
      <path stroke-linejoin="round" stroke-linecap="round" stroke-width="2.667" d="M4.454 22.666a6.364 6.364 0 0 1 1.944-8.453l.003-.003a6.37 6.37 0 0 1 7.312.126l4.576 3.327a6.37 6.37 0 0 0 7.312.126l.003-.003a6.36 6.36 0 0 0 1.943-8.453m-4.878 18.213a6.365 6.365 0 0 1-8.453-1.944l-.003-.003a6.37 6.37 0 0 1 .126-7.312l3.327-4.576a6.37 6.37 0 0 0 .126-7.312l-.006-.003a6.363 6.363 0 0 0-8.453-1.942m16.094 2.118c5.207 5.207 5.207 13.648 0 18.855s-13.648 5.207-18.855 0c-5.207-5.207-5.207-13.648 0-18.855s13.648-5.207 18.855 0z"/>
    </symbol>
    <symbol id="icon-login" viewBox="0 0 32 32">
      <path fill="none" stroke-linejoin="round" stroke-linecap="round" stroke-width="1.5" d="M11.867 10.08c.413-4.8 2.88-6.76 8.28-6.76h.173c5.96 0 8.347 2.387 8.347 8.347v8.693c0 5.96-2.387 8.347-8.347 8.347h-.173c-5.36 0-7.827-1.933-8.267-6.653M2.667 16H19.84"/>
      <path fill="none" stroke-linejoin="round" stroke-linecap="round" stroke-width="1.5" d="M16.867 11.533 21.334 16l-4.467 4.467"/>
    </symbol>
    <symbol id="icon-logo-lightning" viewBox="0 0 32 32">
      <path d="M13.331 23.027c0.244-1.272 0.453-2.61 0.747-3.949 0.145-0.7-0.032-0.999-0.815-0.946s-1.657 0.027-2.49 0c-0.833-0.027-0.982-0.446-0.502-1.044 2.363-2.918 4.753-5.8 7.134-8.674 0.267-0.326 0.575-0.558 1.014-0.312s0.348 0.549 0.276 0.915c-0.263 1.339-0.48 2.677-0.77 3.989-0.149 0.678 0.045 0.919 0.751 0.892 0.709-0.036 1.419-0.036 2.127 0 0.403 0 0.932-0.21 1.141 0.339s-0.231 0.781-0.453 1.106c-0.905 1.115-1.823 2.229-2.752 3.342-1.361 1.624-2.711 3.242-4.051 4.854-0.262 0.317-0.557 0.571-1.005 0.41s-0.353-0.54-0.353-0.924z"/>
    </symbol>
    <symbol id="icon-menu" viewBox="0 0 32 32">
      <path stroke-linejoin="round" stroke-linecap="round" stroke-width="2.5" d="M4 16h24M4 8h24M4 24h24"/>
    </symbol>
    <symbol id="icon-pencil" viewBox="0 0 32 32">
      <path stroke-linejoin="round" stroke-linecap="round" stroke-miterlimit="4" stroke-width="2.6" d="M3.334 28.666l7.4-2.844c0.472-0.182 0.708-0.274 0.93-0.392 0.196-0.106 0.384-0.228 0.56-0.366 0.2-0.154 0.378-0.332 0.736-0.69l15.040-15.040c0.703-0.686 1.138-1.642 1.138-2.7 0-2.083-1.689-3.772-3.772-3.772-1.058 0-2.014 0.436-2.699 1.137l-15.041 15.041c-0.358 0.36-0.536 0.538-0.69 0.736-0.138 0.176-0.26 0.364-0.366 0.56-0.118 0.22-0.208 0.46-0.39 0.932l-2.846 7.4zM3.334 28.666l2.744-7.134c0.196-0.51 0.294-0.766 0.462-0.882 0.106-0.075 0.238-0.12 0.381-0.12 0.044 0 0.087 0.004 0.129 0.012l-0.004-0.001c0.2 0.040 0.394 0.232 0.78 0.62l3.014 3.010c0.386 0.388 0.58 0.58 0.618 0.782 0.008 0.038 0.012 0.081 0.012 0.125 0 0.143-0.045 0.275-0.121 0.383l0.001-0.002c-0.116 0.168-0.372 0.266-0.882 0.462l-7.134 2.744z"></path>
    </symbol>
    <symbol id="icon-plus" viewBox="0 0 32 32">
      <path stroke-linejoin="round" stroke-linecap="round" stroke-width="3.2" d="M16 6.667v18.667M6.667 16h18.667"/>
    </symbol>
    <symbol id="icon-project" viewBox="0 0 32 32">
      <path stroke-width="2.667" d="M4.396 6.978a3.465 3.465 0 0 1 2.582-2.582 7.408 7.408 0 0 1 3.377 0 3.465 3.465 0 0 1 2.582 2.582c.26 1.11.26 2.266 0 3.377a3.465 3.465 0 0 1-2.582 2.582c-1.11.26-2.266.26-3.377 0a3.465 3.465 0 0 1-2.582-2.582 7.408 7.408 0 0 1 0-3.377zM4.396 21.645a3.465 3.465 0 0 1 2.582-2.582 7.38 7.38 0 0 1 3.377 0 3.464 3.464 0 0 1 2.582 2.582 7.408 7.408 0 0 1 0 3.377 3.465 3.465 0 0 1-2.582 2.582 7.38 7.38 0 0 1-3.377 0 3.464 3.464 0 0 1-2.582-2.582 7.408 7.408 0 0 1 0-3.377zM19.063 6.978a3.464 3.464 0 0 1 2.582-2.582 7.408 7.408 0 0 1 3.377 0 3.465 3.465 0 0 1 2.582 2.582 7.38 7.38 0 0 1 0 3.377 3.464 3.464 0 0 1-2.582 2.582 7.408 7.408 0 0 1-3.377 0 3.465 3.465 0 0 1-2.582-2.582 7.38 7.38 0 0 1 0-3.377zM19.063 21.645a3.464 3.464 0 0 1 2.582-2.582 7.38 7.38 0 0 1 3.377 0 3.464 3.464 0 0 1 2.582 2.582 7.38 7.38 0 0 1 0 3.377 3.464 3.464 0 0 1-2.582 2.582 7.38 7.38 0 0 1-3.377 0 3.464 3.464 0 0 1-2.582-2.582 7.38 7.38 0 0 1 0-3.377z"/>
    </symbol>
    <symbol id="icon-puzzle-piece" viewBox="0 0 32 32">
      <path stroke-linejoin="round" stroke-linecap="round" stroke-width="2.667" d="m16 2.667 4.8 4.8C24-.933 32.933 8 24.533 11.2l4.8 4.8-4.8 4.8c-3.2-8.4-12.133.533-3.733 3.733l-4.8 4.8-4.8-4.8C8 32.933-.933 24 7.467 20.8l-4.8-4.8 4.8-4.8c3.2 8.4 12.133-.533 3.733-3.733l4.8-4.8z"/>
    </symbol>
    <symbol id="icon-star" viewBox="0 0 32 32">
      <path stroke-linejoin="round" stroke-linecap="round" stroke-width="2.667" d="m16 2.667 2.683 6.975c.376.978.564 1.466.856 1.878.259.364.577.683.942.942.411.292.9.48 1.878.856l6.975 2.683-6.975 2.683c-.978.376-1.466.564-1.878.856a3.993 3.993 0 0 0-.942.942c-.292.411-.48.9-.856 1.878L16 29.335l-2.683-6.975c-.376-.978-.564-1.466-.856-1.878a4.012 4.012 0 0 0-.942-.942c-.411-.292-.9-.48-1.878-.856l-6.975-2.683 6.975-2.683c.978-.376 1.466-.564 1.878-.856.364-.259.683-.578.942-.942.292-.411.48-.9.856-1.878L16 2.667z"/>
    </symbol>
    <symbol id="icon-trash" viewBox="0 0 32 32">
      <path stroke-linejoin="round" stroke-linecap="round" stroke-miterlimit="4" stroke-width="2.6" d="M12 4h8M4 8h24M6.666 8l0.8 12.018c0.15 2.23 0.224 3.346 0.59 4.242 0.673 1.625 1.992 2.868 3.628 3.424l0.042 0.012c0.92 0.304 2.038 0.304 4.274 0.304v0c2.236 0 3.354 0 4.272-0.304 1.679-0.568 2.999-1.81 3.657-3.396l0.015-0.040c0.364-0.896 0.44-2.012 0.588-4.242l0.8-12.018"></path>
    </symbol>
    <symbol id="icon-x-close" viewBox="0 0 32 32">
      <path stroke-linecap="round" stroke-linejoin="round" stroke-width="2.667" d="M24 8 8 24M8 8l16 16"/>
    </symbol>
    <symbol id="null-background" viewBox="0 0 32 32">
      <path stroke-linecap="round" stroke-linejoin="round" stroke-width="2" d="M25.333 28h1.347c1.295 0 1.942 0 2.299-.27.311-.235.503-.595.527-.984.027-.447-.332-.985-1.051-2.063l-4.014-6.021c-.593-.89-.89-1.335-1.264-1.49a1.331 1.331 0 0 0-1.022 0c-.374.155-.671.6-1.264 1.49l-.992 1.488M25.333 28 15.087 13.2c-.589-.851-.884-1.277-1.252-1.426a1.332 1.332 0 0 0-1.004 0c-.368.15-.663.575-1.252 1.426L3.651 24.652c-.751 1.084-1.126 1.626-1.105 2.077.019.393.21.757.522.996.359.274 1.018.274 2.337.274h19.928zM28 8a4 4 0 1 1-8 0 4 4 0 0 1 8 0z"/>
    </symbol>
    <symbol id="icon-trello" viewBox="0 0 28 32">
      <path d="M24.519 2h-21.012c-1.938 0-3.506 1.569-3.506 3.5-0.006 0 0-0.25 0 21 0 1.931 1.569 3.5 3.5 3.5h21.012c1.925-0.012 3.481-1.575 3.481-3.5v-21c0.006-1.925-1.55-3.487-3.475-3.5zM12.313 23.206c-0.012 0.919-0.756 1.663-1.681 1.663h-5.169c-0.925 0.006-1.681-0.738-1.688-1.663v-15.887c0-0.925 0.75-1.681 1.681-1.681h5.181c0.925 0 1.681 0.75 1.681 1.681v15.887zM24.381 16.206c0 0.925-0.75 1.681-1.681 1.681h-5.063c-0.925 0-1.681-0.75-1.681-1.681v-8.881c0-0.925 0.75-1.681 1.675-1.681h5.069c0.925 0 1.681 0.75 1.681 1.681v8.881z"></path>
    </symbol>
    <symbol id="icon" viewBox="0 0 32 32">
      <path stroke-linejoin="round" stroke-linecap="round" stroke-width="2.667" d="m16 2.667 4.8 4.8C24-.933 32.933 8 24.533 11.2l4.8 4.8-4.8 4.8c-3.2-8.4-12.133.533-3.733 3.733l-4.8 4.8-4.8-4.8C8 32.933-.933 24 7.467 20.8l-4.8-4.8 4.8-4.8c3.2 8.4 12.133-.533 3.733-3.733l4.8-4.8z"/>
    </symbol>
    <symbol id="icon-google" viewBox="0 0 32 32">
      <path fill="#c7ede6" style="fill: var(--color1, #c7ede6)" d="M27.909 18.147c0.363-0.69 0.571-1.474 0.571-2.307 0-2.119-1.331-3.922-3.2-4.633 0-0.002 0-0.004 0-0.007 0-3.711-3.009-6.72-6.72-6.72-3.131 0-5.754 2.144-6.5 5.042-0.472-0.155-0.976-0.242-1.5-0.242-2.461 0-4.487 1.854-4.765 4.241-1.665 0.352-2.915 1.829-2.915 3.599 0 2.032 1.648 3.68 3.68 3.68 0.057 0 0.113-0.004 0.168-0.007-0.001 0.056-0.008 0.111-0.008 0.167 0 3.623 2.937 6.56 6.56 6.56 2.060 0 3.896-0.951 5.099-2.436 0.697 0.712 1.666 1.156 2.741 1.156 1.488 0 2.776-0.848 3.413-2.086 0.337 0.107 0.695 0.166 1.067 0.166 1.944 0 3.52-1.576 3.52-3.52 0-1.060-0.47-2.007-1.211-2.653z"></path>
      <path fill="#fdfcef" style="fill: var(--color2, #fdfcef)" d="M25.12 22.88v0.16h0.96v-0.16c0 0 1.357 0 1.76 0 0.795 0 1.44-0.645 1.44-1.44 0-0.747-0.57-1.353-1.298-1.426 0.007-0.058 0.018-0.115 0.018-0.174 0-0.795-0.645-1.44-1.44-1.44-0.46 0-0.865 0.22-1.129 0.556-0.045-0.844-0.737-1.516-1.591-1.516-0.884 0-1.6 0.716-1.6 1.6 0 0.143 0.025 0.278 0.060 0.41-0.205-0.249-0.512-0.41-0.86-0.41-0.57 0-1.035 0.427-1.106 0.978-0.058-0.007-0.115-0.018-0.174-0.018-0.795 0-1.44 0.645-1.44 1.44s0.645 1.44 1.44 1.44 3.040 0 3.040 0h1.92z"></path>
      <path fill="#472b29" style="fill: var(--color3, #472b29)" d="M23.84 17.28c-0.971 0-1.76 0.789-1.76 1.76 0 0.005 0 0.010 0 0.015-0.193-0.114-0.413-0.175-0.64-0.175-0.586 0-1.092 0.404-1.235 0.962-0.015-0.001-0.030-0.002-0.045-0.002-0.882 0-1.6 0.718-1.6 1.6s0.718 1.6 1.6 1.6h4.96c0.088 0 0.16-0.072 0.16-0.16s-0.072-0.16-0.16-0.16h-4.96c-0.706 0-1.28-0.574-1.28-1.28s0.574-1.28 1.28-1.28c0.037 0 0.074 0.005 0.11 0.010l0.045 0.006c0.007 0.001 0.013 0.001 0.020 0.001 0.079 0 0.148-0.059 0.158-0.14 0.061-0.478 0.468-0.838 0.947-0.838 0.283 0 0.551 0.128 0.736 0.352 0.031 0.038 0.077 0.058 0.124 0.058 0.025 0 0.050-0.006 0.073-0.018 0.067-0.034 0.1-0.111 0.081-0.183-0.037-0.139-0.054-0.256-0.054-0.369 0-0.794 0.646-1.44 1.44-1.44 0.762 0 1.391 0.599 1.432 1.364 0.004 0.067 0.048 0.124 0.112 0.144 0.016 0.005 0.032 0.008 0.049 0.008 0.048 0 0.095-0.022 0.125-0.061 0.247-0.314 0.612-0.494 1.003-0.494 0.706 0 1.28 0.574 1.28 1.28 0 0.037-0.005 0.074-0.010 0.11l-0.006 0.045c-0.005 0.043 0.007 0.086 0.034 0.119s0.066 0.055 0.109 0.059c0.658 0.066 1.154 0.61 1.154 1.267 0 0.706-0.574 1.28-1.28 1.28h-1.76c-0.088 0-0.16 0.072-0.16 0.16s0.072 0.16 0.16 0.16h1.76c0.882 0 1.6-0.718 1.6-1.6 0-0.767-0.54-1.412-1.281-1.561 0.001-0.013 0.001-0.026 0.001-0.039 0-0.882-0.718-1.6-1.6-1.6-0.376 0-0.734 0.133-1.019 0.372-0.191-0.769-0.884-1.332-1.701-1.332v0z"></path>
      <path fill="#472b29" style="fill: var(--color3, #472b29)" d="M23.36 19.52c-0.449 0-0.835 0.32-0.932 0.749-0.117-0.071-0.252-0.109-0.388-0.109-0.385 0-0.703 0.287-0.753 0.662-0.065-0.015-0.127-0.022-0.187-0.022-0.489 0-0.9 0.384-0.934 0.874-0.003 0.044 0.030 0.083 0.074 0.086 0.002 0 0.004 0 0.006 0 0.042 0 0.077-0.032 0.080-0.074 0.028-0.407 0.368-0.726 0.774-0.726 0.073 0 0.15 0.013 0.236 0.041 0.007 0.002 0.014 0.003 0.021 0.003 0.018 0 0.035-0.006 0.050-0.017 0.020-0.015 0.033-0.041 0.033-0.067 0-0.331 0.269-0.6 0.6-0.6 0.143 0 0.283 0.054 0.394 0.151 0.015 0.013 0.034 0.020 0.053 0.020 0.010 0 0.020-0.002 0.030-0.006 0.028-0.011 0.047-0.037 0.050-0.068 0.033-0.414 0.382-0.738 0.794-0.738 0.067 0 0.136 0.011 0.218 0.034 0.007 0.002 0.015 0.003 0.022 0.003 0.035 0 0.066-0.023 0.076-0.058 0.012-0.043-0.012-0.087-0.055-0.099-0.097-0.028-0.18-0.040-0.262-0.040v0zM27.803 20c-0.424 0-0.803 0.287-0.92 0.698-0.012 0.043 0.012 0.087 0.055 0.099 0.008 0.002 0.015 0.003 0.022 0.003 0.035 0 0.067-0.023 0.077-0.058 0.098-0.342 0.412-0.582 0.766-0.582 0.037 0 0.074 0.004 0.109 0.009 0.004 0.001 0.007 0.001 0.011 0.001 0.039 0 0.073-0.029 0.079-0.069 0.006-0.044-0.025-0.084-0.068-0.090s-0.086-0.011-0.131-0.011v0z"></path>
      <path fill="#fff" style="fill: var(--color4, #fff)" d="M10.080 24.32h-3.2c-0.088 0-0.16-0.072-0.16-0.16s0.072-0.16 0.16-0.16h3.2c0.088 0 0.16 0.072 0.16 0.16s-0.071 0.16-0.16 0.16zM11.040 24.32h-0.32c-0.088 0-0.16-0.072-0.16-0.16s0.072-0.16 0.16-0.16h0.32c0.088 0 0.16 0.072 0.16 0.16s-0.071 0.16-0.16 0.16zM12.637 24.96h-2.877c-0.088 0-0.16-0.072-0.16-0.16s0.072-0.16 0.16-0.16h2.877c0.088 0 0.16 0.072 0.16 0.16s-0.072 0.16-0.16 0.16zM9.12 24.96h-0.32c-0.088 0-0.16-0.072-0.16-0.16s0.072-0.16 0.16-0.16h0.32c0.088 0 0.16 0.072 0.16 0.16s-0.071 0.16-0.16 0.16zM8.16 24.96h-0.64c-0.088 0-0.16-0.072-0.16-0.16s0.072-0.16 0.16-0.16h0.64c0.088 0 0.16 0.072 0.16 0.16s-0.071 0.16-0.16 0.16zM10.080 25.6h-0.64c-0.088 0-0.16-0.072-0.16-0.16s0.072-0.16 0.16-0.16h0.64c0.088 0 0.16 0.072 0.16 0.16s-0.072 0.16-0.16 0.16zM11.040 22.72c-0.057 0-0.263 0-0.32 0-0.088 0-0.16 0.072-0.16 0.16s0.072 0.16 0.16 0.16c0.057 0 0.263 0 0.32 0 0.088 0 0.16-0.072 0.16-0.16s-0.072-0.16-0.16-0.16zM11.040 23.36c-0.057 0-1.543 0-1.6 0-0.088 0-0.16 0.072-0.16 0.16s0.072 0.16 0.16 0.16c0.057 0 1.543 0 1.6 0 0.088 0 0.16-0.072 0.16-0.16s-0.072-0.16-0.16-0.16zM12.64 24c-0.057 0-0.903 0-0.96 0-0.088 0-0.16 0.072-0.16 0.16s0.072 0.16 0.16 0.16c0.057 0 0.903 0 0.96 0 0.088 0 0.16-0.072 0.16-0.16s-0.072-0.16-0.16-0.16z"></path>
      <path fill="#fff" style="fill: var(--color4, #fff)" d="M23.2 7.68h-3.2c-0.088 0-0.16-0.072-0.16-0.16s0.072-0.16 0.16-0.16h3.2c0.088 0 0.16 0.072 0.16 0.16s-0.072 0.16-0.16 0.16zM24.48 7.68h-0.64c-0.088 0-0.16-0.072-0.16-0.16s0.072-0.16 0.16-0.16h0.64c0.088 0 0.16 0.072 0.16 0.16s-0.072 0.16-0.16 0.16zM26.080 8.32h-3.2c-0.088 0-0.16-0.072-0.16-0.16s0.072-0.16 0.16-0.16h3.2c0.088 0 0.16 0.072 0.16 0.16s-0.071 0.16-0.16 0.16zM22.24 8.32h-0.32c-0.088 0-0.16-0.072-0.16-0.16s0.072-0.16 0.16-0.16h0.32c0.088 0 0.16 0.072 0.16 0.16s-0.072 0.16-0.16 0.16zM21.27 8.32h-0.63c-0.088 0-0.16-0.072-0.16-0.16s0.072-0.16 0.16-0.16h0.63c0.088 0 0.16 0.072 0.16 0.16s-0.072 0.16-0.16 0.16zM24.16 7.040h-1.6c-0.088 0-0.16-0.072-0.16-0.16s0.072-0.16 0.16-0.16h1.6c0.088 0 0.16 0.072 0.16 0.16s-0.071 0.16-0.16 0.16zM23.2 8.96h-0.64c-0.088 0-0.16-0.072-0.16-0.16s0.072-0.16 0.16-0.16h0.64c0.088 0 0.16 0.072 0.16 0.16s-0.072 0.16-0.16 0.16z"></path>
      <path fill="#ea5167" style="fill: var(--color5, #ea5167)" d="M12.099 15.227c0.372-2.167 2.256-3.817 4.529-3.817 1.033 0 1.983 0.344 2.75 0.919l1.961-2.111c-1.283-1.052-2.923-1.683-4.711-1.683-3.663 0-6.705 2.648-7.321 6.134l2.792 0.558z"></path>
      <path fill="#00a698" style="fill: var(--color6, #00a698)" d="M19.359 19.712c-0.764 0.565-1.708 0.899-2.731 0.899-2.405 0-4.376-1.846-4.58-4.198l-2.732 0.911c0.636 3.462 3.667 6.086 7.313 6.086 1.92 0 3.67-0.728 4.99-1.923l-2.259-1.775z"></path>
      <path fill="#48bed8" style="fill: var(--color7, #48bed8)" d="M22.302 14.63h-5.52v2.76h4.236c-0.329 1.047-1.022 1.932-1.931 2.508l2.222 1.852c1.682-1.364 2.757-3.445 2.757-5.779 0-0.458-0.044-0.906-0.123-1.342h-1.641z"></path>
      <path fill="#fde751" style="fill: var(--color8, #fde751)" d="M12.028 16.010c0-0.669 0.146-1.304 0.404-1.878l-2.398-1.598c-0.537 1.028-0.843 2.197-0.843 3.438 0 1.161 0.266 2.259 0.74 3.237l2.404-1.666c-0.112-0.398-0.307-1.099-0.307-1.533z"></path>
      <path fill="#472b29" style="fill: var(--color3, #472b29)" d="M16.628 23.624c-4.219 0-7.652-3.433-7.652-7.652s3.433-7.652 7.652-7.652c1.764 0 3.485 0.615 4.847 1.732l0.177 0.145-2.247 2.42-0.155-0.116c-0.766-0.573-1.673-0.876-2.622-0.876-2.418 0-4.386 1.967-4.386 4.386s1.967 4.386 4.386 4.386c1.827 0 3.434-1.11 4.086-2.791h-4.148v-3.19h7.555l0.032 0.176c0.084 0.461 0.127 0.925 0.127 1.38 0 4.22-3.433 7.652-7.652 7.652zM16.628 8.749c-3.982 0-7.222 3.24-7.222 7.222s3.24 7.222 7.222 7.222 7.222-3.24 7.222-7.222c0-0.372-0.030-0.75-0.090-1.127h-6.765v2.331h4.314l-0.088 0.279c-0.634 2.016-2.48 3.371-4.594 3.371-2.655 0-4.815-2.16-4.815-4.815s2.16-4.815 4.815-4.815c0.979 0 1.915 0.293 2.722 0.849l1.674-1.803c-1.255-0.964-2.807-1.492-4.396-1.492z"></path>
      <path fill="#fdfcef" style="fill: var(--color2, #fdfcef)" d="M11.68 11.68c0 0 0.501 0 1.12 0s1.12-0.501 1.12-1.12c0-0.57-0.427-1.035-0.978-1.106 0.009-0.057 0.018-0.115 0.018-0.174 0-0.619-0.501-1.12-1.12-1.12-0.33 0-0.624 0.146-0.829 0.373-0.123-0.579-0.636-1.013-1.251-1.013-0.707 0-1.28 0.573-1.28 1.28 0 0.061 0.010 0.12 0.018 0.179-0.137-0.11-0.308-0.179-0.498-0.179-0.393 0-0.718 0.284-0.786 0.658-0.057-0.009-0.115-0.018-0.174-0.018-0.619 0-1.12 0.501-1.12 1.12s0.501 1.12 1.12 1.12 2.4 0 2.4 0v0.16h2.24v-0.16z"></path>
      <path fill="#472b29" style="fill: var(--color3, #472b29)" d="M12.24 10.24c-0.044 0-0.080-0.036-0.080-0.080 0-0.391 0.318-0.71 0.71-0.71 0.011 0.003 0.236-0 0.398 0.044 0.043 0.012 0.068 0.055 0.056 0.098s-0.055 0.068-0.098 0.056c-0.142-0.038-0.352-0.038-0.356-0.038-0.303 0-0.55 0.247-0.55 0.55 0 0.044-0.036 0.080-0.080 0.080zM10.080 11.52c-0.088 0-0.16 0.072-0.16 0.16s0.072 0.16 0.16 0.16v0c0.088 0 0.16-0.072 0.16-0.16s-0.072-0.16-0.16-0.16v0z"></path>
      <path fill="#472b29" style="fill: var(--color3, #472b29)" d="M12.8 11.84h-1.12c-0.088 0-0.16-0.072-0.16-0.16s0.072-0.16 0.16-0.16h1.12c0.529 0 0.96-0.431 0.96-0.96 0-0.479-0.36-0.886-0.838-0.947-0.043-0.006-0.082-0.028-0.108-0.063s-0.037-0.078-0.030-0.121c0.007-0.049 0.015-0.099 0.015-0.15 0-0.529-0.431-0.96-0.96-0.96-0.272 0-0.524 0.114-0.71 0.32-0.040 0.044-0.103 0.063-0.16 0.047s-0.103-0.062-0.115-0.121c-0.109-0.513-0.57-0.886-1.095-0.886-0.618 0-1.12 0.502-1.12 1.12 0 0.046 0.007 0.090 0.013 0.134 0.009 0.065-0.020 0.14-0.077 0.173s-0.127 0.038-0.178-0.003c-0.117-0.094-0.254-0.143-0.398-0.143-0.309 0-0.573 0.221-0.628 0.526-0.015 0.085-0.095 0.143-0.182 0.13-0.049-0.008-0.099-0.016-0.15-0.016-0.529 0-0.96 0.431-0.96 0.96s0.431 0.96 0.96 0.96h2.4c0.088 0 0.16 0.072 0.16 0.16s-0.072 0.16-0.16 0.16h-2.4c-0.706 0-1.28-0.574-1.28-1.28s0.574-1.28 1.28-1.28c0.019 0 0.037 0.001 0.056 0.002 0.132-0.38 0.492-0.642 0.904-0.642 0.112 0 0.22 0.020 0.324 0.058 0.053-0.747 0.677-1.338 1.436-1.338 0.586 0 1.109 0.361 1.329 0.888 0.218-0.159 0.481-0.248 0.751-0.248 0.706 0 1.28 0.574 1.28 1.28 0 0.015-0 0.030-0.001 0.045 0.558 0.143 0.961 0.649 0.961 1.235 0 0.706-0.574 1.28-1.28 1.28z"></path>
      <path fill="#472b29" style="fill: var(--color3, #472b29)" d="M11.040 11.52c-0.051 0-0.269 0-0.32 0-0.088 0-0.16 0.072-0.16 0.16s0.072 0.16 0.16 0.16c0.051 0 0.269 0 0.32 0 0.088 0 0.16-0.072 0.16-0.16s-0.072-0.16-0.16-0.16z"></path>
    </symbol>
    <symbol id="icon-main-trello" viewBox="0 0 32 32"><path fill="#fff" style="fill:var(--color1, #fff)" d="M4 16.96h-.32c-.088 0-.16-.072-.16-.16s.072-.16.16-.16H4a.16.16 0 1 1 0 .32zM3.04 16.96H2.4c-.088 0-.16-.072-.16-.16s.072-.16.16-.16h.64a.16.16 0 1 1 0 .32z"/><path fill="#c7ede6" style="fill:var(--color2, #c7ede6)" d="M27.909 18.147a4.94 4.94 0 0 0 .571-2.307 4.958 4.958 0 0 0-3.2-4.633V11.2a6.72 6.72 0 0 0-6.72-6.72c-3.131 0-5.754 2.144-6.5 5.042a4.8 4.8 0 0 0-6.265 3.999A3.68 3.68 0 0 0 6.56 20.8c.057 0 .113-.004.168-.007-.001.056-.008.111-.008.167a6.56 6.56 0 0 0 11.659 4.124 3.823 3.823 0 0 0 2.741 1.156 3.836 3.836 0 0 0 3.413-2.086 3.518 3.518 0 0 0 3.376-6.007z"/><path fill="#472b29" style="fill:var(--color3, #472b29)" d="M11.28 22.72a.08.08 0 0 1-.08-.08.71.71 0 0 1 .71-.71c.011.003.236 0 .398.044.043.012.068.055.056.098s-.055.068-.098.056c-.142-.038-.352-.038-.356-.038a.551.551 0 0 0-.55.55.08.08 0 0 1-.08.08z"/><path fill="#fdfcef" style="fill:var(--color4, #fdfcef)" d="M10.72 24.16h1.12a1.117 1.117 0 0 0 .142-2.226c.009-.057.018-.115.018-.174a1.115 1.115 0 0 0-1.949-.747 1.28 1.28 0 0 0-2.531.267c0 .061.01.12.018.179a.791.791 0 0 0-.498-.179.8.8 0 0 0-.786.658 1.115 1.115 0 0 0-.174-.018 1.12 1.12 0 1 0 0 2.24h2.4v.16h2.24z"/><path fill="#472b29" style="fill:var(--color3, #472b29)" d="M9.28 24.16c0 .088-.072.16-.16.16s-.16-.072-.16-.16c0-.088.072-.16.16-.16s.16.072.16.16z"/><path fill="#472b29" style="fill:var(--color3, #472b29)" d="M13.12 23.04c0 .706-.574 1.28-1.28 1.28h-1.12c-.088 0-.16-.072-.16-.16s.072-.16.16-.16h1.12c.529 0 .96-.431.96-.96a.958.958 0 0 0-.838-.947.161.161 0 0 1-.138-.184c.007-.049.015-.099.015-.15a.962.962 0 0 0-.96-.96.948.948 0 0 0-.71.32.16.16 0 0 1-.275-.074 1.12 1.12 0 0 0-2.215.234c0 .046.007.09.013.134.009.065-.02.14-.077.173s-.127.038-.178-.003a.63.63 0 0 0-.398-.143.638.638 0 0 0-.628.526.16.16 0 0 1-.182.13.93.93 0 0 0-.15-.016c-.529 0-.96.431-.96.96s.431.96.96.96h2.4c.088 0 .16.072.16.16s-.072.16-.16.16h-2.4a1.281 1.281 0 0 1 0-2.56l.056.002a.957.957 0 0 1 1.228-.584 1.442 1.442 0 0 1 1.436-1.338c.586 0 1.109.361 1.329.888.218-.159.481-.248.751-.248.706 0 1.28.574 1.28 1.28l-.001.045c.558.143.961.649.961 1.235z"/><path fill="#472b29" style="fill:var(--color3, #472b29)" d="M10.08 24h-.32c-.088 0-.16.072-.16.16s.072.16.16.16h.32c.088 0 .16-.072.16-.16s-.072-.16-.16-.16z"/><path fill="#6e78ad" style="fill:var(--color5, #6e78ad)" d="M11.836 22.724a2.24 2.24 0 0 1-2.24-2.24v-8.967a2.24 2.24 0 0 1 2.24-2.24h8.967a2.24 2.24 0 0 1 2.24 2.24v8.967a2.24 2.24 0 0 1-2.24 2.24z"/><path fill="#472b29" style="fill:var(--color3, #472b29)" d="M20.8 9.408c1.164 0 2.112.948 2.112 2.112v8.96a2.115 2.115 0 0 1-2.112 2.112h-8.96a2.115 2.115 0 0 1-2.112-2.112v-8.96c0-1.164.948-2.112 2.112-2.112h8.96zm0-.448h-8.96a2.56 2.56 0 0 0-2.56 2.56v8.96a2.56 2.56 0 0 0 2.56 2.56h8.96a2.56 2.56 0 0 0 2.56-2.56v-8.96a2.56 2.56 0 0 0-2.56-2.56z"/><path fill="#472b29" style="fill:var(--color3, #472b29)" d="M22.24 13.12a.16.16 0 0 1-.16-.16v-1.28c0-.794-.646-1.44-1.44-1.44h-3.52c-.088 0-.16-.072-.16-.16s.072-.16.16-.16h3.52c.97 0 1.76.789 1.76 1.76v1.28a.16.16 0 0 1-.16.16zM22.24 18.24a.16.16 0 0 1-.16-.16v-2.885c0-.088.072-.16.16-.16s.16.072.16.16v2.885a.16.16 0 0 1-.16.16zM22.4 20.32c0 .971-.79 1.76-1.76 1.76H12c-.97 0-1.76-.789-1.76-1.76v-8.64c0-.971.79-1.76 1.76-1.76h2.24c.088 0 .16.072.16.16s-.072.16-.16.16H12c-.794 0-1.44.646-1.44 1.44v8.64c0 .794.646 1.44 1.44 1.44h8.64c.794 0 1.44-.646 1.44-1.44v-1.28c0-.088.072-.16.16-.16s.16.072.16.16zM16.16 10.24h-.96c-.088 0-.16-.072-.16-.16s.072-.16.16-.16h.96c.088 0 .16.072.16.16s-.072.16-.16.16z"/><path fill="#fff" style="fill:var(--color1, #fff)" d="M5.92 16.32H5.6c-.088 0-.16-.072-.16-.16s.072-.16.16-.16h.32a.16.16 0 1 1 0 .32zM7.517 16.96H4.64c-.088 0-.16-.072-.16-.16s.072-.16.16-.16h2.877c.088 0 .16.072.16.16s-.072.16-.16.16zM5.92 14.72H5.6c-.088 0-.16.072-.16.16s.072.16.16.16h.32c.088 0 .16-.072.16-.16s-.072-.16-.16-.16zM5.92 15.36h-1.6c-.088 0-.16.072-.16.16s.072.16.16.16h1.6c.088 0 .16-.072.16-.16s-.072-.16-.16-.16zM7.52 16h-.96c-.088 0-.16.072-.16.16s.072.16.16.16h.96c.088 0 .16-.072.16-.16S7.608 16 7.52 16zM28 20.8h-3.2c-.088 0-.16-.072-.16-.16s.072-.16.16-.16H28c.088 0 .16.072.16.16s-.072.16-.16.16zM29.44 20.64a.16.16 0 0 1-.16.16h-.64c-.088 0-.16-.072-.16-.16s.072-.16.16-.16h.64a.16.16 0 0 1 .16.16zM30.88 21.44h-3.2c-.088 0-.16-.072-.16-.16s.072-.16.16-.16h3.2a.16.16 0 1 1 0 .32zM27.04 21.44h-.32c-.088 0-.16-.072-.16-.16s.072-.16.16-.16h.32c.088 0 .16.072.16.16s-.072.16-.16.16zM26.04 21.44h-.6c-.088 0-.16-.072-.16-.16s.072-.16.16-.16h.6c.088 0 .16.072.16.16s-.072.16-.16.16zM29.12 20a.16.16 0 0 1-.16.16h-1.6c-.088 0-.16-.072-.16-.16s.072-.16.16-.16h1.6a.16.16 0 0 1 .16.16zM28 22.08h-.64c-.088 0-.16-.072-.16-.16s.072-.16.16-.16H28c.088 0 .16.072.16.16s-.072.16-.16.16z"/><path fill="#fdfcef" style="fill:var(--color4, #fdfcef)" d="M25.88 11.04h1.96a1.435 1.435 0 0 0 .142-2.866C27.989 8.116 28 8.059 28 8a1.44 1.44 0 0 0-1.44-1.44c-.46 0-.865.22-1.129.556a1.596 1.596 0 0 0-3.191.084c0 .143.025.278.06.41a1.11 1.11 0 0 0-1.966.568c-.058-.007-.115-.018-.174-.018a1.44 1.44 0 0 0 0 2.88h4.76v.16h.96z"/><path fill="#472b29" style="fill:var(--color3, #472b29)" d="M23.84 5.44c-.971 0-1.76.789-1.76 1.76v.015a1.256 1.256 0 0 0-.64-.175 1.28 1.28 0 0 0-1.235.962L20.16 8c-.882 0-1.6.718-1.6 1.6s.718 1.6 1.6 1.6h4.76c.088 0 .16-.072.16-.16s-.072-.16-.16-.16h-4.76a1.281 1.281 0 0 1 0-2.56c.037 0 .074.005.11.01l.045.006a.16.16 0 0 0 .178-.139.958.958 0 0 1 .947-.838c.283 0 .551.128.736.352a.16.16 0 0 0 .197.04.16.16 0 0 0 .081-.183 1.412 1.412 0 0 1-.054-.369 1.437 1.437 0 0 1 2.872-.076.16.16 0 0 0 .161.152.158.158 0 0 0 .125-.061 1.271 1.271 0 0 1 1.003-.494c.706 0 1.28.574 1.28 1.28a.803.803 0 0 1-.01.11l-.006.045a.159.159 0 0 0 .143.178c.658.066 1.154.61 1.154 1.267 0 .706-.574 1.28-1.28 1.28h-1.96c-.088 0-.16.072-.16.16s.072.16.16.16h1.96c.882 0 1.6-.718 1.6-1.6a1.59 1.59 0 0 0-1.281-1.561A1.602 1.602 0 0 0 26.562 6.4c-.376 0-.734.133-1.019.372a1.755 1.755 0 0 0-1.701-1.332z"/><path fill="#472b29" style="fill:var(--color3, #472b29)" d="M23.36 7.68a.963.963 0 0 0-.932.749.75.75 0 0 0-.388-.109.76.76 0 0 0-.753.662.828.828 0 0 0-.187-.022c-.489 0-.9.384-.934.874a.08.08 0 0 0 .074.086h.006a.08.08 0 0 0 .08-.074.78.78 0 0 1 .774-.726c.073 0 .15.013.236.041a.076.076 0 0 0 .021.003.084.084 0 0 0 .083-.084.6.6 0 0 1 .6-.6.6.6 0 0 1 .394.151.081.081 0 0 0 .083.014.08.08 0 0 0 .05-.068.803.803 0 0 1 .794-.738c.067 0 .136.011.218.034a.079.079 0 0 0 .098-.055.08.08 0 0 0-.055-.099.923.923 0 0 0-.262-.04zM27.803 8.16a.963.963 0 0 0-.92.698.08.08 0 0 0 .077.102.08.08 0 0 0 .077-.058.802.802 0 0 1 .875-.573l.011.001a.08.08 0 0 0 .011-.159.938.938 0 0 0-.131-.011z"/><path fill="#fff" style="fill:var(--color1, #fff)" d="M12.16 20.32a.48.48 0 0 1-.48-.48v-7.68a.48.48 0 0 1 .48-.48h2.873c.268 0 .487.219.487.487v7.673a.48.48 0 0 1-.48.48z"/><path fill="#472b29" style="fill:var(--color3, #472b29)" d="M15.033 11.84c.18 0 .327.147.327.327v7.673a.32.32 0 0 1-.32.32h-2.88a.32.32 0 0 1-.32-.32v-7.68a.32.32 0 0 1 .32-.32h2.873zm0-.32H12.16a.64.64 0 0 0-.64.64v7.68c0 .354.286.64.64.64h2.88a.64.64 0 0 0 .64-.64v-7.673a.647.647 0 0 0-.647-.647z"/><path fill="#fff" style="fill:var(--color1, #fff)" d="M17.607 16.48a.488.488 0 0 1-.487-.487v-3.827c0-.268.219-.487.487-.487h2.866c.268 0 .487.219.487.487v3.826a.488.488 0 0 1-.487.487h-2.866z"/><path fill="#472b29" style="fill:var(--color3, #472b29)" d="M20.473 11.84c.18 0 .327.147.327.327v3.826c0 .18-.147.327-.327.327h-2.866a.328.328 0 0 1-.327-.327v-3.826c0-.18.147-.327.327-.327h2.867zm0-.32h-2.866a.647.647 0 0 0-.647.647v3.826c0 .357.29.647.647.647h2.866c.357 0 .647-.29.647-.647v-3.826a.647.647 0 0 0-.647-.647z"/></symbol>
    <symbol id="icon-read-more" viewBox="0 0 32 32">
<path d="M12 0.005c6.627 0 12 5.373 12 12 0 2.026-0.507 3.933-1.395 5.608l8.344 8.342-0.007 0.006c0.652 0.641 1.058 1.529 1.058 2.516 0 1.949-1.58 3.529-3.529 3.529-0.985 0-1.874-0.406-2.515-1.059l0.002-0.002-8.341-8.34c-1.676 0.891-3.586 1.4-5.617 1.4-6.627 0-12-5.373-12-12s5.373-12 12-12zM27.205 29.697c0.322 0.334 0.768 0.543 1.266 0.543 0.975 0 1.765-0.789 1.765-1.764 0-0.498-0.21-0.943-0.543-1.266l0.009-0.008-8.066-8.066c-0.705 0.951-1.545 1.791-2.494 2.498l8.063 8.063zM12 22.006c5.522 0 10-4.479 10-10s-4.478-10-10-10c-5.521 0-10 4.478-10 10s4.479 10 10 10zM12 5.005c-0.275 0-0.5 0.224-0.5 0.5s0.225 0.5 0.5 0.5c3.314 0 6 2.687 6 6 0 0.276 0.224 0.5 0.5 0.5s0.5-0.224 0.5-0.5c0-3.866-3.133-7-7-7z"></path>
    </symbol>
  </defs>
</svg>
