<svg aria-hidden="true" style="position:absolute;width:0;height:0;overflow:hidden" xmlns="http://www.w3.org/2000/svg">
  <defs>
    <symbol id="icon-arrow-circle-broken-right" viewBox="0 0 32 32">
      <path stroke-linejoin="round" stroke-linecap="round" stroke-width="2.6" d="M4.45 9.333A13.328 13.328 0 0 1 16 2.666c7.364 0 13.333 5.97 13.333 13.333S23.363 29.332 16 29.332a13.329 13.329 0 0 1-11.55-6.667"/>
      <path stroke-linejoin="round" stroke-linecap="round" stroke-width="2.6" d="M16 21.333 21.333 16 16 10.667M2.667 16h18.667"/>
    </symbol>
    <symbol id="icon-avatar" viewBox="0 0 32 32">
      <path d="M22.667 8.762c0 3.577-2.899 6.476-6.476 6.476s-6.476-2.899-6.476-6.476a6.475 6.475 0 1 1 12.952 0z"/>
      <path d="M31.859 30.75a15.922 15.922 0 0 0-4.666-11.264 15.934 15.934 0 0 0-17.36-3.453A15.934 15.934 0 0 0-.001 30.75h31.859z"/>
    </symbol>
    <symbol id="icon-bell" viewBox="0 0 32 32">
      <path stroke-linejoin="round" stroke-linecap="round" stroke-width="3" d="M12.472 28c.94.83 2.175 1.333 3.528 1.333s2.588-.504 3.528-1.333M24 10.667a8 8 0 1 0-16 0c0 4.12-1.039 6.941-2.2 8.807-.979 1.574-1.469 2.361-1.451 2.58.02.243.071.336.267.481.177.131.974.131 2.569.131h17.63c1.595 0 2.392 0 2.569-.131.196-.145.247-.238.267-.481.018-.22-.472-1.006-1.451-2.58-1.161-1.866-2.2-4.687-2.2-8.807z"/>
    </symbol>
    <symbol id="icon-chevron-down" viewBox="0 0 32 32">
      <path stroke-linejoin="round" stroke-linecap="round" stroke-width="2.824" d="M8.471 12.235 16 19.764l7.529-7.529"/>
    </symbol>
    <symbol id="icon-colors" viewBox="0 0 32 32">
      <path stroke-linejoin="round" stroke-linecap="round" stroke-width="2.667" d="M16 27.296a8 8 0 1 0 7.44-13.683m-14.88.001a8 8 0 1 0 9.546 4.773M24 10.667a8 8 0 1 1-16 0 8 8 0 0 1 16 0z"/>
    </symbol>
    <symbol id="icon-container" viewBox="0 0 32 32">
      <path stroke-linejoin="round" stroke-linecap="round" stroke-width="2.667" d="M27.333 9.704 16 16m0 0L4.667 9.704M16 16v12.667m12-7.256V10.588c0-.457 0-.685-.067-.889a1.343 1.343 0 0 0-.285-.485c-.145-.158-.345-.269-.744-.491l-9.867-5.481c-.378-.21-.567-.315-.767-.356a1.349 1.349 0 0 0-.537 0c-.2.041-.389.146-.767.356L5.099 8.723c-.399.222-.599.333-.744.491a1.34 1.34 0 0 0-.286.485c-.067.204-.067.432-.067.889v10.823c0 .457 0 .685.067.889.06.18.157.346.286.485.145.158.345.269.744.491l9.867 5.482c.378.21.567.315.767.356.177.036.36.036.537 0 .2-.041.389-.146.767-.356l9.867-5.482c.399-.222.599-.333.744-.491.129-.14.226-.305.285-.485.067-.204.067-.432.067-.889z"/>
    </symbol>
    <symbol id="icon-eye" viewBox="0 0 32 32" >
      <path d="M0.75 9C0.75 9 3.75 3 9 3C14.25 3 17.25 9 17.25 9C17.25 9 14.25 15 9 15C3.75 15 0.75 9 0.75 9Z" stroke="white" stroke-width="1.3" stroke-linecap="round" stroke-linejoin="round"/>
      <path d="M9 11.25C10.2426 11.25 11.25 10.2426 11.25 9C11.25 7.75736 10.2426 6.75 9 6.75C7.75736 6.75 6.75 7.75736 6.75 9C6.75 10.2426 7.75736 11.25 9 11.25Z" stroke="white" stroke-width="1.3" stroke-linecap="round" stroke-linejoin="round"/>
    </symbol>
    <symbol id="icon-eye-hide" viewBox="0 0 24 24">
      <path stroke-linecap="round" stroke-linejoin="round" stroke-width="2" d="m2 2 20 20M6.713 6.723C3.665 8.795 2 12 2 12s3.636 7 10 7c2.05 0 3.817-.727 5.271-1.712M11 5.058A8.595 8.595 0 0 1 12 5c6.364 0 10 7 10 7s-.692 1.332-2 2.834"/>
      <path stroke-linecap="round" stroke-linejoin="round" stroke-width="2" d="M14 14.236a3 3 0 0 1-4.13-4.348"/>
    </symbol>
    <symbol id="icon-filter" viewBox="0 0 32 32">
      <path stroke-linejoin="round" stroke-linecap="round" stroke-width="3" d="M29.334 4H2.667l10.667 12.613v8.72L18.667 28V16.613L29.334 4z"/>
    </symbol>
    <symbol id="icon-help-circle" viewBox="0 0 32 32">
      <path fill="none" stroke-linejoin="round" stroke-linecap="round" stroke-width="2.88" d="M16 29.333c7.364 0 13.333-5.97 13.333-13.333S23.364 2.667 16 2.667 2.667 8.637 2.667 16c0 7.364 5.97 13.333 13.333 13.333z"/>
      <path fill="none" stroke-linejoin="round" stroke-linecap="round" stroke-width="2.88" d="M12.12 12a4.003 4.003 0 0 1 6.834-1.249c.608.722.941 1.637.94 2.582 0 2.667-4 4-4 4M16 22.667h.02"/>
    </symbol>
    <symbol id="icon-hexagon" viewBox="0 0 32 32">
      <path stroke-linejoin="round" stroke-linecap="round" stroke-width="2.667" d="M14.964 3.242c.378-.21.567-.315.767-.356.177-.036.36-.036.537 0 .2.041.389.146.767.356l9.867 5.482c.399.222.599.333.744.491.129.14.226.305.285.485.067.204.067.432.067.889v10.823c0 .457 0 .685-.067.889-.06.18-.157.346-.285.485-.145.158-.345.269-.744.491l-9.867 5.482c-.378.21-.567.315-.767.356-.177.036-.36.036-.537 0-.2-.041-.389-.146-.767-.356l-9.867-5.482c-.399-.222-.599-.333-.744-.491a1.34 1.34 0 0 1-.286-.485C4 22.097 4 21.869 4 21.412V10.589c0-.457 0-.685.067-.889.06-.18.157-.346.286-.485.145-.158.345-.269.744-.491l9.867-5.481z"/>
    </symbol>
    <symbol id="icon-lightning-icon" viewBox="0 0 32 32">
      <path stroke-linejoin="round" stroke-linecap="round" stroke-width="2.667" d="M18.999 2.667h-7.674c-.239 0-.359 0-.465.036a.672.672 0 0 0-.249.154c-.08.078-.133.185-.24.399l-5.6 11.2c-.256.511-.383.767-.353.974a.669.669 0 0 0 .277.449c.172.12.458.12 1.029.12h8.274l-4 13.333 16.258-16.86c.548-.569.823-.853.839-1.097a.665.665 0 0 0-.235-.553c-.186-.157-.581-.157-1.372-.157h-9.49l3-8z"/>
    </symbol>
    <symbol id="icon-loading" viewBox="0 0 32 32">
      <path stroke-linejoin="round" stroke-linecap="round" stroke-width="2.667" d="M4.454 22.666a6.364 6.364 0 0 1 1.944-8.453l.003-.003a6.37 6.37 0 0 1 7.312.126l4.576 3.327a6.37 6.37 0 0 0 7.312.126l.003-.003a6.36 6.36 0 0 0 1.943-8.453m-4.878 18.213a6.365 6.365 0 0 1-8.453-1.944l-.003-.003a6.37 6.37 0 0 1 .126-7.312l3.327-4.576a6.37 6.37 0 0 0 .126-7.312l-.006-.003a6.363 6.363 0 0 0-8.453-1.942m16.094 2.118c5.207 5.207 5.207 13.648 0 18.855s-13.648 5.207-18.855 0c-5.207-5.207-5.207-13.648 0-18.855s13.648-5.207 18.855 0z"/>
    </symbol>
    <symbol id="icon-login" viewBox="0 0 32 32">
      <path fill="none" stroke-linejoin="round" stroke-linecap="round" stroke-width="1.5" d="M11.867 10.08c.413-4.8 2.88-6.76 8.28-6.76h.173c5.96 0 8.347 2.387 8.347 8.347v8.693c0 5.96-2.387 8.347-8.347 8.347h-.173c-5.36 0-7.827-1.933-8.267-6.653M2.667 16H19.84"/>
      <path fill="none" stroke-linejoin="round" stroke-linecap="round" stroke-width="1.5" d="M16.867 11.533 21.334 16l-4.467 4.467"/>
    </symbol>
    <symbol id="icon-logo-lightning" viewBox="0 0 32 32">
      <path d="M13.331 23.027c0.244-1.272 0.453-2.61 0.747-3.949 0.145-0.7-0.032-0.999-0.815-0.946s-1.657 0.027-2.49 0c-0.833-0.027-0.982-0.446-0.502-1.044 2.363-2.918 4.753-5.8 7.134-8.674 0.267-0.326 0.575-0.558 1.014-0.312s0.348 0.549 0.276 0.915c-0.263 1.339-0.48 2.677-0.77 3.989-0.149 0.678 0.045 0.919 0.751 0.892 0.709-0.036 1.419-0.036 2.127 0 0.403 0 0.932-0.21 1.141 0.339s-0.231 0.781-0.453 1.106c-0.905 1.115-1.823 2.229-2.752 3.342-1.361 1.624-2.711 3.242-4.051 4.854-0.262 0.317-0.557 0.571-1.005 0.41s-0.353-0.54-0.353-0.924z"/>
    </symbol>
    <symbol id="icon-menu" viewBox="0 0 32 32">
      <path stroke-linejoin="round" stroke-linecap="round" stroke-width="2.5" d="M4 16h24M4 8h24M4 24h24"/>
    </symbol>
    <symbol id="icon-pencil" viewBox="0 0 32 32">
      <path stroke-linejoin="round" stroke-linecap="round" stroke-miterlimit="4" stroke-width="2.6" d="M3.334 28.666l7.4-2.844c0.472-0.182 0.708-0.274 0.93-0.392 0.196-0.106 0.384-0.228 0.56-0.366 0.2-0.154 0.378-0.332 0.736-0.69l15.040-15.040c0.703-0.686 1.138-1.642 1.138-2.7 0-2.083-1.689-3.772-3.772-3.772-1.058 0-2.014 0.436-2.699 1.137l-15.041 15.041c-0.358 0.36-0.536 0.538-0.69 0.736-0.138 0.176-0.26 0.364-0.366 0.56-0.118 0.22-0.208 0.46-0.39 0.932l-2.846 7.4zM3.334 28.666l2.744-7.134c0.196-0.51 0.294-0.766 0.462-0.882 0.106-0.075 0.238-0.12 0.381-0.12 0.044 0 0.087 0.004 0.129 0.012l-0.004-0.001c0.2 0.040 0.394 0.232 0.78 0.62l3.014 3.010c0.386 0.388 0.58 0.58 0.618 0.782 0.008 0.038 0.012 0.081 0.012 0.125 0 0.143-0.045 0.275-0.121 0.383l0.001-0.002c-0.116 0.168-0.372 0.266-0.882 0.462l-7.134 2.744z"></path>
    </symbol>
    <symbol id="icon-plus" viewBox="0 0 32 32">
      <path stroke-linejoin="round" stroke-linecap="round" stroke-width="3.2" d="M16 6.667v18.667M6.667 16h18.667"/>
    </symbol>
    <symbol id="icon-Project" viewBox="0 0 32 32">
      <path stroke-width="2.667" d="M4.396 6.978a3.465 3.465 0 0 1 2.582-2.582 7.408 7.408 0 0 1 3.377 0 3.465 3.465 0 0 1 2.582 2.582c.26 1.11.26 2.266 0 3.377a3.465 3.465 0 0 1-2.582 2.582c-1.11.26-2.266.26-3.377 0a3.465 3.465 0 0 1-2.582-2.582 7.408 7.408 0 0 1 0-3.377zM4.396 21.645a3.465 3.465 0 0 1 2.582-2.582 7.38 7.38 0 0 1 3.377 0 3.464 3.464 0 0 1 2.582 2.582 7.408 7.408 0 0 1 0 3.377 3.465 3.465 0 0 1-2.582 2.582 7.38 7.38 0 0 1-3.377 0 3.464 3.464 0 0 1-2.582-2.582 7.408 7.408 0 0 1 0-3.377zM19.063 6.978a3.464 3.464 0 0 1 2.582-2.582 7.408 7.408 0 0 1 3.377 0 3.465 3.465 0 0 1 2.582 2.582 7.38 7.38 0 0 1 0 3.377 3.464 3.464 0 0 1-2.582 2.582 7.408 7.408 0 0 1-3.377 0 3.465 3.465 0 0 1-2.582-2.582 7.38 7.38 0 0 1 0-3.377zM19.063 21.645a3.464 3.464 0 0 1 2.582-2.582 7.38 7.38 0 0 1 3.377 0 3.464 3.464 0 0 1 2.582 2.582 7.38 7.38 0 0 1 0 3.377 3.464 3.464 0 0 1-2.582 2.582 7.38 7.38 0 0 1-3.377 0 3.464 3.464 0 0 1-2.582-2.582 7.38 7.38 0 0 1 0-3.377z"/>
    </symbol>
    <symbol id="icon-puzzle-piece" viewBox="0 0 32 32">
      <path stroke-linejoin="round" stroke-linecap="round" stroke-width="2.667" d="m16 2.667 4.8 4.8C24-.933 32.933 8 24.533 11.2l4.8 4.8-4.8 4.8c-3.2-8.4-12.133.533-3.733 3.733l-4.8 4.8-4.8-4.8C8 32.933-.933 24 7.467 20.8l-4.8-4.8 4.8-4.8c3.2 8.4 12.133-.533 3.733-3.733l4.8-4.8z"/>
    </symbol>
    <symbol id="icon-star" viewBox="0 0 32 32">
      <path stroke-linejoin="round" stroke-linecap="round" stroke-width="2.667" d="m16 2.667 2.683 6.975c.376.978.564 1.466.856 1.878.259.364.577.683.942.942.411.292.9.48 1.878.856l6.975 2.683-6.975 2.683c-.978.376-1.466.564-1.878.856a3.993 3.993 0 0 0-.942.942c-.292.411-.48.9-.856 1.878L16 29.335l-2.683-6.975c-.376-.978-.564-1.466-.856-1.878a4.012 4.012 0 0 0-.942-.942c-.411-.292-.9-.48-1.878-.856l-6.975-2.683 6.975-2.683c.978-.376 1.466-.564 1.878-.856.364-.259.683-.578.942-.942.292-.411.48-.9.856-1.878L16 2.667z"/>
    </symbol>
    <symbol id="icon-trash" viewBox="0 0 32 32">
      <path stroke-linejoin="round" stroke-linecap="round" stroke-miterlimit="4" stroke-width="2.6" d="M12 4h8M4 8h24M6.666 8l0.8 12.018c0.15 2.23 0.224 3.346 0.59 4.242 0.673 1.625 1.992 2.868 3.628 3.424l0.042 0.012c0.92 0.304 2.038 0.304 4.274 0.304v0c2.236 0 3.354 0 4.272-0.304 1.679-0.568 2.999-1.81 3.657-3.396l0.015-0.040c0.364-0.896 0.44-2.012 0.588-4.242l0.8-12.018"></path>
    </symbol>
    <symbol id="icon-x-close" viewBox="0 0 32 32">
      <path stroke-linecap="round" stroke-linejoin="round" stroke-width="2.667" d="M24 8 8 24M8 8l16 16"/>
    </symbol>
    <symbol id="null-background" viewBox="0 0 32 32">
      <path stroke-linecap="round" stroke-linejoin="round" stroke-width="2" d="M25.333 28h1.347c1.295 0 1.942 0 2.299-.27.311-.235.503-.595.527-.984.027-.447-.332-.985-1.051-2.063l-4.014-6.021c-.593-.89-.89-1.335-1.264-1.49a1.331 1.331 0 0 0-1.022 0c-.374.155-.671.6-1.264 1.49l-.992 1.488M25.333 28 15.087 13.2c-.589-.851-.884-1.277-1.252-1.426a1.332 1.332 0 0 0-1.004 0c-.368.15-.663.575-1.252 1.426L3.651 24.652c-.751 1.084-1.126 1.626-1.105 2.077.019.393.21.757.522.996.359.274 1.018.274 2.337.274h19.928zM28 8a4 4 0 1 1-8 0 4 4 0 0 1 8 0z"/>
    </symbol>
    <symbol id="icon-trello" viewBox="0 0 28 32">
      <path d="M24.519 2h-21.012c-1.938 0-3.506 1.569-3.506 3.5-0.006 0 0-0.25 0 21 0 1.931 1.569 3.5 3.5 3.5h21.012c1.925-0.012 3.481-1.575 3.481-3.5v-21c0.006-1.925-1.55-3.487-3.475-3.5zM12.313 23.206c-0.012 0.919-0.756 1.663-1.681 1.663h-5.169c-0.925 0.006-1.681-0.738-1.688-1.663v-15.887c0-0.925 0.75-1.681 1.681-1.681h5.181c0.925 0 1.681 0.75 1.681 1.681v15.887zM24.381 16.206c0 0.925-0.75 1.681-1.681 1.681h-5.063c-0.925 0-1.681-0.75-1.681-1.681v-8.881c0-0.925 0.75-1.681 1.675-1.681h5.069c0.925 0 1.681 0.75 1.681 1.681v8.881z"></path>
    </symbol>
    <symbol id="icon" viewBox="0 0 32 32">
      <path stroke-linejoin="round" stroke-linecap="round" stroke-width="2.667" d="m16 2.667 4.8 4.8C24-.933 32.933 8 24.533 11.2l4.8 4.8-4.8 4.8c-3.2-8.4-12.133.533-3.733 3.733l-4.8 4.8-4.8-4.8C8 32.933-.933 24 7.467 20.8l-4.8-4.8 4.8-4.8c3.2 8.4 12.133-.533 3.733-3.733l4.8-4.8z"/>
    </symbol>
    <symbol id="icon-main-trello" viewBox="0 0 32 32"><path fill="#fff" style="fill:var(--color1, #fff)" d="M4 16.96h-.32c-.088 0-.16-.072-.16-.16s.072-.16.16-.16H4a.16.16 0 1 1 0 .32zM3.04 16.96H2.4c-.088 0-.16-.072-.16-.16s.072-.16.16-.16h.64a.16.16 0 1 1 0 .32z"/><path fill="#c7ede6" style="fill:var(--color2, #c7ede6)" d="M27.909 18.147a4.94 4.94 0 0 0 .571-2.307 4.958 4.958 0 0 0-3.2-4.633V11.2a6.72 6.72 0 0 0-6.72-6.72c-3.131 0-5.754 2.144-6.5 5.042a4.8 4.8 0 0 0-6.265 3.999A3.68 3.68 0 0 0 6.56 20.8c.057 0 .113-.004.168-.007-.001.056-.008.111-.008.167a6.56 6.56 0 0 0 11.659 4.124 3.823 3.823 0 0 0 2.741 1.156 3.836 3.836 0 0 0 3.413-2.086 3.518 3.518 0 0 0 3.376-6.007z"/><path fill="#472b29" style="fill:var(--color3, #472b29)" d="M11.28 22.72a.08.08 0 0 1-.08-.08.71.71 0 0 1 .71-.71c.011.003.236 0 .398.044.043.012.068.055.056.098s-.055.068-.098.056c-.142-.038-.352-.038-.356-.038a.551.551 0 0 0-.55.55.08.08 0 0 1-.08.08z"/><path fill="#fdfcef" style="fill:var(--color4, #fdfcef)" d="M10.72 24.16h1.12a1.117 1.117 0 0 0 .142-2.226c.009-.057.018-.115.018-.174a1.115 1.115 0 0 0-1.949-.747 1.28 1.28 0 0 0-2.531.267c0 .061.01.12.018.179a.791.791 0 0 0-.498-.179.8.8 0 0 0-.786.658 1.115 1.115 0 0 0-.174-.018 1.12 1.12 0 1 0 0 2.24h2.4v.16h2.24z"/><path fill="#472b29" style="fill:var(--color3, #472b29)" d="M9.28 24.16c0 .088-.072.16-.16.16s-.16-.072-.16-.16c0-.088.072-.16.16-.16s.16.072.16.16z"/><path fill="#472b29" style="fill:var(--color3, #472b29)" d="M13.12 23.04c0 .706-.574 1.28-1.28 1.28h-1.12c-.088 0-.16-.072-.16-.16s.072-.16.16-.16h1.12c.529 0 .96-.431.96-.96a.958.958 0 0 0-.838-.947.161.161 0 0 1-.138-.184c.007-.049.015-.099.015-.15a.962.962 0 0 0-.96-.96.948.948 0 0 0-.71.32.16.16 0 0 1-.275-.074 1.12 1.12 0 0 0-2.215.234c0 .046.007.09.013.134.009.065-.02.14-.077.173s-.127.038-.178-.003a.63.63 0 0 0-.398-.143.638.638 0 0 0-.628.526.16.16 0 0 1-.182.13.93.93 0 0 0-.15-.016c-.529 0-.96.431-.96.96s.431.96.96.96h2.4c.088 0 .16.072.16.16s-.072.16-.16.16h-2.4a1.281 1.281 0 0 1 0-2.56l.056.002a.957.957 0 0 1 1.228-.584 1.442 1.442 0 0 1 1.436-1.338c.586 0 1.109.361 1.329.888.218-.159.481-.248.751-.248.706 0 1.28.574 1.28 1.28l-.001.045c.558.143.961.649.961 1.235z"/><path fill="#472b29" style="fill:var(--color3, #472b29)" d="M10.08 24h-.32c-.088 0-.16.072-.16.16s.072.16.16.16h.32c.088 0 .16-.072.16-.16s-.072-.16-.16-.16z"/><path fill="#6e78ad" style="fill:var(--color5, #6e78ad)" d="M11.836 22.724a2.24 2.24 0 0 1-2.24-2.24v-8.967a2.24 2.24 0 0 1 2.24-2.24h8.967a2.24 2.24 0 0 1 2.24 2.24v8.967a2.24 2.24 0 0 1-2.24 2.24z"/><path fill="#472b29" style="fill:var(--color3, #472b29)" d="M20.8 9.408c1.164 0 2.112.948 2.112 2.112v8.96a2.115 2.115 0 0 1-2.112 2.112h-8.96a2.115 2.115 0 0 1-2.112-2.112v-8.96c0-1.164.948-2.112 2.112-2.112h8.96zm0-.448h-8.96a2.56 2.56 0 0 0-2.56 2.56v8.96a2.56 2.56 0 0 0 2.56 2.56h8.96a2.56 2.56 0 0 0 2.56-2.56v-8.96a2.56 2.56 0 0 0-2.56-2.56z"/><path fill="#472b29" style="fill:var(--color3, #472b29)" d="M22.24 13.12a.16.16 0 0 1-.16-.16v-1.28c0-.794-.646-1.44-1.44-1.44h-3.52c-.088 0-.16-.072-.16-.16s.072-.16.16-.16h3.52c.97 0 1.76.789 1.76 1.76v1.28a.16.16 0 0 1-.16.16zM22.24 18.24a.16.16 0 0 1-.16-.16v-2.885c0-.088.072-.16.16-.16s.16.072.16.16v2.885a.16.16 0 0 1-.16.16zM22.4 20.32c0 .971-.79 1.76-1.76 1.76H12c-.97 0-1.76-.789-1.76-1.76v-8.64c0-.971.79-1.76 1.76-1.76h2.24c.088 0 .16.072.16.16s-.072.16-.16.16H12c-.794 0-1.44.646-1.44 1.44v8.64c0 .794.646 1.44 1.44 1.44h8.64c.794 0 1.44-.646 1.44-1.44v-1.28c0-.088.072-.16.16-.16s.16.072.16.16zM16.16 10.24h-.96c-.088 0-.16-.072-.16-.16s.072-.16.16-.16h.96c.088 0 .16.072.16.16s-.072.16-.16.16z"/><path fill="#fff" style="fill:var(--color1, #fff)" d="M5.92 16.32H5.6c-.088 0-.16-.072-.16-.16s.072-.16.16-.16h.32a.16.16 0 1 1 0 .32zM7.517 16.96H4.64c-.088 0-.16-.072-.16-.16s.072-.16.16-.16h2.877c.088 0 .16.072.16.16s-.072.16-.16.16zM5.92 14.72H5.6c-.088 0-.16.072-.16.16s.072.16.16.16h.32c.088 0 .16-.072.16-.16s-.072-.16-.16-.16zM5.92 15.36h-1.6c-.088 0-.16.072-.16.16s.072.16.16.16h1.6c.088 0 .16-.072.16-.16s-.072-.16-.16-.16zM7.52 16h-.96c-.088 0-.16.072-.16.16s.072.16.16.16h.96c.088 0 .16-.072.16-.16S7.608 16 7.52 16zM28 20.8h-3.2c-.088 0-.16-.072-.16-.16s.072-.16.16-.16H28c.088 0 .16.072.16.16s-.072.16-.16.16zM29.44 20.64a.16.16 0 0 1-.16.16h-.64c-.088 0-.16-.072-.16-.16s.072-.16.16-.16h.64a.16.16 0 0 1 .16.16zM30.88 21.44h-3.2c-.088 0-.16-.072-.16-.16s.072-.16.16-.16h3.2a.16.16 0 1 1 0 .32zM27.04 21.44h-.32c-.088 0-.16-.072-.16-.16s.072-.16.16-.16h.32c.088 0 .16.072.16.16s-.072.16-.16.16zM26.04 21.44h-.6c-.088 0-.16-.072-.16-.16s.072-.16.16-.16h.6c.088 0 .16.072.16.16s-.072.16-.16.16zM29.12 20a.16.16 0 0 1-.16.16h-1.6c-.088 0-.16-.072-.16-.16s.072-.16.16-.16h1.6a.16.16 0 0 1 .16.16zM28 22.08h-.64c-.088 0-.16-.072-.16-.16s.072-.16.16-.16H28c.088 0 .16.072.16.16s-.072.16-.16.16z"/><path fill="#fdfcef" style="fill:var(--color4, #fdfcef)" d="M25.88 11.04h1.96a1.435 1.435 0 0 0 .142-2.866C27.989 8.116 28 8.059 28 8a1.44 1.44 0 0 0-1.44-1.44c-.46 0-.865.22-1.129.556a1.596 1.596 0 0 0-3.191.084c0 .143.025.278.06.41a1.11 1.11 0 0 0-1.966.568c-.058-.007-.115-.018-.174-.018a1.44 1.44 0 0 0 0 2.88h4.76v.16h.96z"/><path fill="#472b29" style="fill:var(--color3, #472b29)" d="M23.84 5.44c-.971 0-1.76.789-1.76 1.76v.015a1.256 1.256 0 0 0-.64-.175 1.28 1.28 0 0 0-1.235.962L20.16 8c-.882 0-1.6.718-1.6 1.6s.718 1.6 1.6 1.6h4.76c.088 0 .16-.072.16-.16s-.072-.16-.16-.16h-4.76a1.281 1.281 0 0 1 0-2.56c.037 0 .074.005.11.01l.045.006a.16.16 0 0 0 .178-.139.958.958 0 0 1 .947-.838c.283 0 .551.128.736.352a.16.16 0 0 0 .197.04.16.16 0 0 0 .081-.183 1.412 1.412 0 0 1-.054-.369 1.437 1.437 0 0 1 2.872-.076.16.16 0 0 0 .161.152.158.158 0 0 0 .125-.061 1.271 1.271 0 0 1 1.003-.494c.706 0 1.28.574 1.28 1.28a.803.803 0 0 1-.01.11l-.006.045a.159.159 0 0 0 .143.178c.658.066 1.154.61 1.154 1.267 0 .706-.574 1.28-1.28 1.28h-1.96c-.088 0-.16.072-.16.16s.072.16.16.16h1.96c.882 0 1.6-.718 1.6-1.6a1.59 1.59 0 0 0-1.281-1.561A1.602 1.602 0 0 0 26.562 6.4c-.376 0-.734.133-1.019.372a1.755 1.755 0 0 0-1.701-1.332z"/><path fill="#472b29" style="fill:var(--color3, #472b29)" d="M23.36 7.68a.963.963 0 0 0-.932.749.75.75 0 0 0-.388-.109.76.76 0 0 0-.753.662.828.828 0 0 0-.187-.022c-.489 0-.9.384-.934.874a.08.08 0 0 0 .074.086h.006a.08.08 0 0 0 .08-.074.78.78 0 0 1 .774-.726c.073 0 .15.013.236.041a.076.076 0 0 0 .021.003.084.084 0 0 0 .083-.084.6.6 0 0 1 .6-.6.6.6 0 0 1 .394.151.081.081 0 0 0 .083.014.08.08 0 0 0 .05-.068.803.803 0 0 1 .794-.738c.067 0 .136.011.218.034a.079.079 0 0 0 .098-.055.08.08 0 0 0-.055-.099.923.923 0 0 0-.262-.04zM27.803 8.16a.963.963 0 0 0-.92.698.08.08 0 0 0 .077.102.08.08 0 0 0 .077-.058.802.802 0 0 1 .875-.573l.011.001a.08.08 0 0 0 .011-.159.938.938 0 0 0-.131-.011z"/><path fill="#fff" style="fill:var(--color1, #fff)" d="M12.16 20.32a.48.48 0 0 1-.48-.48v-7.68a.48.48 0 0 1 .48-.48h2.873c.268 0 .487.219.487.487v7.673a.48.48 0 0 1-.48.48z"/><path fill="#472b29" style="fill:var(--color3, #472b29)" d="M15.033 11.84c.18 0 .327.147.327.327v7.673a.32.32 0 0 1-.32.32h-2.88a.32.32 0 0 1-.32-.32v-7.68a.32.32 0 0 1 .32-.32h2.873zm0-.32H12.16a.64.64 0 0 0-.64.64v7.68c0 .354.286.64.64.64h2.88a.64.64 0 0 0 .64-.64v-7.673a.647.647 0 0 0-.647-.647z"/><path fill="#fff" style="fill:var(--color1, #fff)" d="M17.607 16.48a.488.488 0 0 1-.487-.487v-3.827c0-.268.219-.487.487-.487h2.866c.268 0 .487.219.487.487v3.826a.488.488 0 0 1-.487.487h-2.866z"/><path fill="#472b29" style="fill:var(--color3, #472b29)" d="M20.473 11.84c.18 0 .327.147.327.327v3.826c0 .18-.147.327-.327.327h-2.866a.328.328 0 0 1-.327-.327v-3.826c0-.18.147-.327.327-.327h2.867zm0-.32h-2.866a.647.647 0 0 0-.647.647v3.826c0 .357.29.647.647.647h2.866c.357 0 .647-.29.647-.647v-3.826a.647.647 0 0 0-.647-.647z"/></symbol>
  </defs>
</svg>
