<svg aria-hidden="true" style="position: absolute; width: 0; height: 0; overflow: hidden;" version="1.1" xmlns="http://www.w3.org/2000/svg" xmlns:xlink="http://www.w3.org/1999/xlink">
<defs>
<symbol id="icon-google" viewBox="0 0 32 32">
<path fill="#c7ede6" style="fill: var(--color1, #c7ede6)" d="M27.909 18.147c0.363-0.69 0.571-1.474 0.571-2.307 0-2.119-1.331-3.922-3.2-4.633 0-0.002 0-0.004 0-0.007 0-3.711-3.009-6.72-6.72-6.72-3.131 0-5.754 2.144-6.5 5.042-0.472-0.155-0.976-0.242-1.5-0.242-2.461 0-4.487 1.854-4.765 4.241-1.665 0.352-2.915 1.829-2.915 3.599 0 2.032 1.648 3.68 3.68 3.68 0.057 0 0.113-0.004 0.168-0.007-0.001 0.056-0.008 0.111-0.008 0.167 0 3.623 2.937 6.56 6.56 6.56 2.060 0 3.896-0.951 5.099-2.436 0.697 0.712 1.666 1.156 2.741 1.156 1.488 0 2.776-0.848 3.413-2.086 0.337 0.107 0.695 0.166 1.067 0.166 1.944 0 3.52-1.576 3.52-3.52 0-1.060-0.47-2.007-1.211-2.653z"></path>
<path fill="#fdfcef" style="fill: var(--color2, #fdfcef)" d="M25.12 22.88v0.16h0.96v-0.16c0 0 1.357 0 1.76 0 0.795 0 1.44-0.645 1.44-1.44 0-0.747-0.57-1.353-1.298-1.426 0.007-0.058 0.018-0.115 0.018-0.174 0-0.795-0.645-1.44-1.44-1.44-0.46 0-0.865 0.22-1.129 0.556-0.045-0.844-0.737-1.516-1.591-1.516-0.884 0-1.6 0.716-1.6 1.6 0 0.143 0.025 0.278 0.060 0.41-0.205-0.249-0.512-0.41-0.86-0.41-0.57 0-1.035 0.427-1.106 0.978-0.058-0.007-0.115-0.018-0.174-0.018-0.795 0-1.44 0.645-1.44 1.44s0.645 1.44 1.44 1.44 3.040 0 3.040 0h1.92z"></path>
<path fill="#472b29" style="fill: var(--color3, #472b29)" d="M23.84 17.28c-0.971 0-1.76 0.789-1.76 1.76 0 0.005 0 0.010 0 0.015-0.193-0.114-0.413-0.175-0.64-0.175-0.586 0-1.092 0.404-1.235 0.962-0.015-0.001-0.030-0.002-0.045-0.002-0.882 0-1.6 0.718-1.6 1.6s0.718 1.6 1.6 1.6h4.96c0.088 0 0.16-0.072 0.16-0.16s-0.072-0.16-0.16-0.16h-4.96c-0.706 0-1.28-0.574-1.28-1.28s0.574-1.28 1.28-1.28c0.037 0 0.074 0.005 0.11 0.010l0.045 0.006c0.007 0.001 0.013 0.001 0.020 0.001 0.079 0 0.148-0.059 0.158-0.14 0.061-0.478 0.468-0.838 0.947-0.838 0.283 0 0.551 0.128 0.736 0.352 0.031 0.038 0.077 0.058 0.124 0.058 0.025 0 0.050-0.006 0.073-0.018 0.067-0.034 0.1-0.111 0.081-0.183-0.037-0.139-0.054-0.256-0.054-0.369 0-0.794 0.646-1.44 1.44-1.44 0.762 0 1.391 0.599 1.432 1.364 0.004 0.067 0.048 0.124 0.112 0.144 0.016 0.005 0.032 0.008 0.049 0.008 0.048 0 0.095-0.022 0.125-0.061 0.247-0.314 0.612-0.494 1.003-0.494 0.706 0 1.28 0.574 1.28 1.28 0 0.037-0.005 0.074-0.010 0.11l-0.006 0.045c-0.005 0.043 0.007 0.086 0.034 0.119s0.066 0.055 0.109 0.059c0.658 0.066 1.154 0.61 1.154 1.267 0 0.706-0.574 1.28-1.28 1.28h-1.76c-0.088 0-0.16 0.072-0.16 0.16s0.072 0.16 0.16 0.16h1.76c0.882 0 1.6-0.718 1.6-1.6 0-0.767-0.54-1.412-1.281-1.561 0.001-0.013 0.001-0.026 0.001-0.039 0-0.882-0.718-1.6-1.6-1.6-0.376 0-0.734 0.133-1.019 0.372-0.191-0.769-0.884-1.332-1.701-1.332v0z"></path>
<path fill="#472b29" style="fill: var(--color3, #472b29)" d="M23.36 19.52c-0.449 0-0.835 0.32-0.932 0.749-0.117-0.071-0.252-0.109-0.388-0.109-0.385 0-0.703 0.287-0.753 0.662-0.065-0.015-0.127-0.022-0.187-0.022-0.489 0-0.9 0.384-0.934 0.874-0.003 0.044 0.030 0.083 0.074 0.086 0.002 0 0.004 0 0.006 0 0.042 0 0.077-0.032 0.080-0.074 0.028-0.407 0.368-0.726 0.774-0.726 0.073 0 0.15 0.013 0.236 0.041 0.007 0.002 0.014 0.003 0.021 0.003 0.018 0 0.035-0.006 0.050-0.017 0.020-0.015 0.033-0.041 0.033-0.067 0-0.331 0.269-0.6 0.6-0.6 0.143 0 0.283 0.054 0.394 0.151 0.015 0.013 0.034 0.020 0.053 0.020 0.010 0 0.020-0.002 0.030-0.006 0.028-0.011 0.047-0.037 0.050-0.068 0.033-0.414 0.382-0.738 0.794-0.738 0.067 0 0.136 0.011 0.218 0.034 0.007 0.002 0.015 0.003 0.022 0.003 0.035 0 0.066-0.023 0.076-0.058 0.012-0.043-0.012-0.087-0.055-0.099-0.097-0.028-0.18-0.040-0.262-0.040v0zM27.803 20c-0.424 0-0.803 0.287-0.92 0.698-0.012 0.043 0.012 0.087 0.055 0.099 0.008 0.002 0.015 0.003 0.022 0.003 0.035 0 0.067-0.023 0.077-0.058 0.098-0.342 0.412-0.582 0.766-0.582 0.037 0 0.074 0.004 0.109 0.009 0.004 0.001 0.007 0.001 0.011 0.001 0.039 0 0.073-0.029 0.079-0.069 0.006-0.044-0.025-0.084-0.068-0.090s-0.086-0.011-0.131-0.011v0z"></path>
<path fill="#fff" style="fill: var(--color4, #fff)" d="M10.080 24.32h-3.2c-0.088 0-0.16-0.072-0.16-0.16s0.072-0.16 0.16-0.16h3.2c0.088 0 0.16 0.072 0.16 0.16s-0.071 0.16-0.16 0.16zM11.040 24.32h-0.32c-0.088 0-0.16-0.072-0.16-0.16s0.072-0.16 0.16-0.16h0.32c0.088 0 0.16 0.072 0.16 0.16s-0.071 0.16-0.16 0.16zM12.637 24.96h-2.877c-0.088 0-0.16-0.072-0.16-0.16s0.072-0.16 0.16-0.16h2.877c0.088 0 0.16 0.072 0.16 0.16s-0.072 0.16-0.16 0.16zM9.12 24.96h-0.32c-0.088 0-0.16-0.072-0.16-0.16s0.072-0.16 0.16-0.16h0.32c0.088 0 0.16 0.072 0.16 0.16s-0.071 0.16-0.16 0.16zM8.16 24.96h-0.64c-0.088 0-0.16-0.072-0.16-0.16s0.072-0.16 0.16-0.16h0.64c0.088 0 0.16 0.072 0.16 0.16s-0.071 0.16-0.16 0.16zM10.080 25.6h-0.64c-0.088 0-0.16-0.072-0.16-0.16s0.072-0.16 0.16-0.16h0.64c0.088 0 0.16 0.072 0.16 0.16s-0.072 0.16-0.16 0.16zM11.040 22.72c-0.057 0-0.263 0-0.32 0-0.088 0-0.16 0.072-0.16 0.16s0.072 0.16 0.16 0.16c0.057 0 0.263 0 0.32 0 0.088 0 0.16-0.072 0.16-0.16s-0.072-0.16-0.16-0.16zM11.040 23.36c-0.057 0-1.543 0-1.6 0-0.088 0-0.16 0.072-0.16 0.16s0.072 0.16 0.16 0.16c0.057 0 1.543 0 1.6 0 0.088 0 0.16-0.072 0.16-0.16s-0.072-0.16-0.16-0.16zM12.64 24c-0.057 0-0.903 0-0.96 0-0.088 0-0.16 0.072-0.16 0.16s0.072 0.16 0.16 0.16c0.057 0 0.903 0 0.96 0 0.088 0 0.16-0.072 0.16-0.16s-0.072-0.16-0.16-0.16z"></path>
<path fill="#fff" style="fill: var(--color4, #fff)" d="M23.2 7.68h-3.2c-0.088 0-0.16-0.072-0.16-0.16s0.072-0.16 0.16-0.16h3.2c0.088 0 0.16 0.072 0.16 0.16s-0.072 0.16-0.16 0.16zM24.48 7.68h-0.64c-0.088 0-0.16-0.072-0.16-0.16s0.072-0.16 0.16-0.16h0.64c0.088 0 0.16 0.072 0.16 0.16s-0.072 0.16-0.16 0.16zM26.080 8.32h-3.2c-0.088 0-0.16-0.072-0.16-0.16s0.072-0.16 0.16-0.16h3.2c0.088 0 0.16 0.072 0.16 0.16s-0.071 0.16-0.16 0.16zM22.24 8.32h-0.32c-0.088 0-0.16-0.072-0.16-0.16s0.072-0.16 0.16-0.16h0.32c0.088 0 0.16 0.072 0.16 0.16s-0.072 0.16-0.16 0.16zM21.27 8.32h-0.63c-0.088 0-0.16-0.072-0.16-0.16s0.072-0.16 0.16-0.16h0.63c0.088 0 0.16 0.072 0.16 0.16s-0.072 0.16-0.16 0.16zM24.16 7.040h-1.6c-0.088 0-0.16-0.072-0.16-0.16s0.072-0.16 0.16-0.16h1.6c0.088 0 0.16 0.072 0.16 0.16s-0.071 0.16-0.16 0.16zM23.2 8.96h-0.64c-0.088 0-0.16-0.072-0.16-0.16s0.072-0.16 0.16-0.16h0.64c0.088 0 0.16 0.072 0.16 0.16s-0.072 0.16-0.16 0.16z"></path>
<path fill="#ea5167" style="fill: var(--color5, #ea5167)" d="M12.099 15.227c0.372-2.167 2.256-3.817 4.529-3.817 1.033 0 1.983 0.344 2.75 0.919l1.961-2.111c-1.283-1.052-2.923-1.683-4.711-1.683-3.663 0-6.705 2.648-7.321 6.134l2.792 0.558z"></path>
<path fill="#00a698" style="fill: var(--color6, #00a698)" d="M19.359 19.712c-0.764 0.565-1.708 0.899-2.731 0.899-2.405 0-4.376-1.846-4.58-4.198l-2.732 0.911c0.636 3.462 3.667 6.086 7.313 6.086 1.92 0 3.67-0.728 4.99-1.923l-2.259-1.775z"></path>
<path fill="#48bed8" style="fill: var(--color7, #48bed8)" d="M22.302 14.63h-5.52v2.76h4.236c-0.329 1.047-1.022 1.932-1.931 2.508l2.222 1.852c1.682-1.364 2.757-3.445 2.757-5.779 0-0.458-0.044-0.906-0.123-1.342h-1.641z"></path>
<path fill="#fde751" style="fill: var(--color8, #fde751)" d="M12.028 16.010c0-0.669 0.146-1.304 0.404-1.878l-2.398-1.598c-0.537 1.028-0.843 2.197-0.843 3.438 0 1.161 0.266 2.259 0.74 3.237l2.404-1.666c-0.112-0.398-0.307-1.099-0.307-1.533z"></path>
<path fill="#472b29" style="fill: var(--color3, #472b29)" d="M16.628 23.624c-4.219 0-7.652-3.433-7.652-7.652s3.433-7.652 7.652-7.652c1.764 0 3.485 0.615 4.847 1.732l0.177 0.145-2.247 2.42-0.155-0.116c-0.766-0.573-1.673-0.876-2.622-0.876-2.418 0-4.386 1.967-4.386 4.386s1.967 4.386 4.386 4.386c1.827 0 3.434-1.11 4.086-2.791h-4.148v-3.19h7.555l0.032 0.176c0.084 0.461 0.127 0.925 0.127 1.38 0 4.22-3.433 7.652-7.652 7.652zM16.628 8.749c-3.982 0-7.222 3.24-7.222 7.222s3.24 7.222 7.222 7.222 7.222-3.24 7.222-7.222c0-0.372-0.030-0.75-0.090-1.127h-6.765v2.331h4.314l-0.088 0.279c-0.634 2.016-2.48 3.371-4.594 3.371-2.655 0-4.815-2.16-4.815-4.815s2.16-4.815 4.815-4.815c0.979 0 1.915 0.293 2.722 0.849l1.674-1.803c-1.255-0.964-2.807-1.492-4.396-1.492z"></path>
<path fill="#fdfcef" style="fill: var(--color2, #fdfcef)" d="M11.68 11.68c0 0 0.501 0 1.12 0s1.12-0.501 1.12-1.12c0-0.57-0.427-1.035-0.978-1.106 0.009-0.057 0.018-0.115 0.018-0.174 0-0.619-0.501-1.12-1.12-1.12-0.33 0-0.624 0.146-0.829 0.373-0.123-0.579-0.636-1.013-1.251-1.013-0.707 0-1.28 0.573-1.28 1.28 0 0.061 0.010 0.12 0.018 0.179-0.137-0.11-0.308-0.179-0.498-0.179-0.393 0-0.718 0.284-0.786 0.658-0.057-0.009-0.115-0.018-0.174-0.018-0.619 0-1.12 0.501-1.12 1.12s0.501 1.12 1.12 1.12 2.4 0 2.4 0v0.16h2.24v-0.16z"></path>
<path fill="#472b29" style="fill: var(--color3, #472b29)" d="M12.24 10.24c-0.044 0-0.080-0.036-0.080-0.080 0-0.391 0.318-0.71 0.71-0.71 0.011 0.003 0.236-0 0.398 0.044 0.043 0.012 0.068 0.055 0.056 0.098s-0.055 0.068-0.098 0.056c-0.142-0.038-0.352-0.038-0.356-0.038-0.303 0-0.55 0.247-0.55 0.55 0 0.044-0.036 0.080-0.080 0.080zM10.080 11.52c-0.088 0-0.16 0.072-0.16 0.16s0.072 0.16 0.16 0.16v0c0.088 0 0.16-0.072 0.16-0.16s-0.072-0.16-0.16-0.16v0z"></path>
<path fill="#472b29" style="fill: var(--color3, #472b29)" d="M12.8 11.84h-1.12c-0.088 0-0.16-0.072-0.16-0.16s0.072-0.16 0.16-0.16h1.12c0.529 0 0.96-0.431 0.96-0.96 0-0.479-0.36-0.886-0.838-0.947-0.043-0.006-0.082-0.028-0.108-0.063s-0.037-0.078-0.030-0.121c0.007-0.049 0.015-0.099 0.015-0.15 0-0.529-0.431-0.96-0.96-0.96-0.272 0-0.524 0.114-0.71 0.32-0.040 0.044-0.103 0.063-0.16 0.047s-0.103-0.062-0.115-0.121c-0.109-0.513-0.57-0.886-1.095-0.886-0.618 0-1.12 0.502-1.12 1.12 0 0.046 0.007 0.090 0.013 0.134 0.009 0.065-0.020 0.14-0.077 0.173s-0.127 0.038-0.178-0.003c-0.117-0.094-0.254-0.143-0.398-0.143-0.309 0-0.573 0.221-0.628 0.526-0.015 0.085-0.095 0.143-0.182 0.13-0.049-0.008-0.099-0.016-0.15-0.016-0.529 0-0.96 0.431-0.96 0.96s0.431 0.96 0.96 0.96h2.4c0.088 0 0.16 0.072 0.16 0.16s-0.072 0.16-0.16 0.16h-2.4c-0.706 0-1.28-0.574-1.28-1.28s0.574-1.28 1.28-1.28c0.019 0 0.037 0.001 0.056 0.002 0.132-0.38 0.492-0.642 0.904-0.642 0.112 0 0.22 0.020 0.324 0.058 0.053-0.747 0.677-1.338 1.436-1.338 0.586 0 1.109 0.361 1.329 0.888 0.218-0.159 0.481-0.248 0.751-0.248 0.706 0 1.28 0.574 1.28 1.28 0 0.015-0 0.030-0.001 0.045 0.558 0.143 0.961 0.649 0.961 1.235 0 0.706-0.574 1.28-1.28 1.28z"></path>
<path fill="#472b29" style="fill: var(--color3, #472b29)" d="M11.040 11.52c-0.051 0-0.269 0-0.32 0-0.088 0-0.16 0.072-0.16 0.16s0.072 0.16 0.16 0.16c0.051 0 0.269 0 0.32 0 0.088 0 0.16-0.072 0.16-0.16s-0.072-0.16-0.16-0.16z"></path>
</symbol>
<symbol id="icon-eye" viewBox="0 0 32 32">
<path d="M16 6c-6.979 0-13.028 4.064-16 10 2.972 5.936 9.021 10 16 10s13.027-4.064 16-10c-2.972-5.936-9.021-10-16-10zM23.889 11.303c1.88 1.199 3.473 2.805 4.67 4.697-1.197 1.891-2.79 3.498-4.67 4.697-2.362 1.507-5.090 2.303-7.889 2.303s-5.527-0.796-7.889-2.303c-1.88-1.199-3.473-2.805-4.67-4.697 1.197-1.891 2.79-3.498 4.67-4.697 0.122-0.078 0.246-0.154 0.371-0.228-0.311 0.854-0.482 1.776-0.482 2.737 0 4.418 3.582 8 8 8s8-3.582 8-8c0-0.962-0.17-1.883-0.482-2.737 0.124 0.074 0.248 0.15 0.371 0.228v0zM16 13c0 1.657-1.343 3-3 3s-3-1.343-3-3 1.343-3 3-3 3 1.343 3 3z"></path>
</symbol>
<symbol id="icon-eye-blocked" viewBox="0 0 32 32">
<path d="M29.561 0.439c-0.586-0.586-1.535-0.586-2.121 0l-6.318 6.318c-1.623-0.492-3.342-0.757-5.122-0.757-6.979 0-13.028 4.064-16 10 1.285 2.566 3.145 4.782 5.407 6.472l-4.968 4.968c-0.586 0.586-0.586 1.535 0 2.121 0.293 0.293 0.677 0.439 1.061 0.439s0.768-0.146 1.061-0.439l27-27c0.586-0.586 0.586-1.536 0-2.121zM13 10c1.32 0 2.44 0.853 2.841 2.037l-3.804 3.804c-1.184-0.401-2.037-1.521-2.037-2.841 0-1.657 1.343-3 3-3zM3.441 16c1.197-1.891 2.79-3.498 4.67-4.697 0.122-0.078 0.246-0.154 0.371-0.228-0.311 0.854-0.482 1.776-0.482 2.737 0 1.715 0.54 3.304 1.459 4.607l-1.904 1.904c-1.639-1.151-3.038-2.621-4.114-4.323z"></path>
<path d="M24 13.813c0-0.849-0.133-1.667-0.378-2.434l-10.056 10.056c0.768 0.245 1.586 0.378 2.435 0.378 4.418 0 8-3.582 8-8z"></path>
<path d="M25.938 9.062l-2.168 2.168c0.040 0.025 0.079 0.049 0.118 0.074 1.88 1.199 3.473 2.805 4.67 4.697-1.197 1.891-2.79 3.498-4.67 4.697-2.362 1.507-5.090 2.303-7.889 2.303-1.208 0-2.403-0.149-3.561-0.439l-2.403 2.403c1.866 0.671 3.873 1.036 5.964 1.036 6.978 0 13.027-4.064 16-10-1.407-2.81-3.504-5.2-6.062-6.938z"></path>
</symbol>
</defs>
</svg>
